<svg xmlns="http://www.w3.org/2000/svg" xmlns:xlink="http://www.w3.org/1999/xlink" xmlns:inkscape="http://www.inkscape.org/namespaces/inkscape" version="1.1" width="555" height="555" viewBox="0 0 555 555">
<defs>
<clipPath id="clip_0">
<path d="M0 0H555V555H0Z"/>
</clipPath>
<mask id="mask_1">
<g>
<clipPath id="clip_2">
<path transform="matrix(47.885374,0,0,47.885374,174.73067,174.73067)" d="M-3.648936-3.648936H7.941242V7.941242H-3.648936Z"/>
</clipPath>
<g clip-path="url(#clip_2)">
<path transform="matrix(47.885374,0,0,47.885374,174.73067,174.73067)" d="M0 0H4.292305V4.292305H0Z" fill="#ffffff"/>
</g>
</g>
"/>
</mask>
<clipPath id="clip_3">
<path transform="matrix(47.885374,0,0,47.885374,174.73067,174.73067)" d="M-3.648936-3.648936H7.941242V7.941242H-3.648936Z"/>
</clipPath>
<mask id="mask_4">
<g>
<clipPath id="clip_5">
<path transform="matrix(47.885374,0,0,47.885374,174.73067,174.73067)" d="M-3.648936-3.648936H7.941242V7.941242H-3.648936Z"/>
</clipPath>
<g clip-path="url(#clip_5)">
<path transform="matrix(47.885374,0,0,47.885374,174.73067,174.73067)" d="M0 0H4.292305V4.292305H0Z" fill="#ffffff"/>
</g>
</g>
"/>
</mask>
<clipPath id="clip_6">
<path transform="matrix(47.885374,0,0,47.885374,174.73067,174.73067)" d="M-3.648936-3.648936H7.941242V7.941242H-3.648936Z"/>
</clipPath>
<mask id="mask_7">
<g>
<clipPath id="clip_8">
<path transform="matrix(47.885374,0,0,47.885374,174.73067,174.73067)" d="M-3.648936-3.648936H7.941242V7.941242H-3.648936Z"/>
</clipPath>
<g clip-path="url(#clip_8)">
<path transform="matrix(47.885374,0,0,47.885374,174.73067,174.73067)" d="M0 0H4.292305V4.292305H0Z" fill="#ffffff"/>
</g>
</g>
"/>
</mask>
<clipPath id="clip_9">
<path transform="matrix(47.885374,0,0,47.885374,174.73067,174.73067)" d="M-3.648936-3.648936H7.941242V7.941242H-3.648936Z"/>
</clipPath>
<mask id="mask_10">
<g>
<clipPath id="clip_11">
<path transform="matrix(4.1212546,-47.707719,47.707719,4.1212546,1.4560547,168.42546)" d="M-8.045578-.333007H4.4991V12.211671H-8.045578Z"/>
</clipPath>
<g clip-path="url(#clip_11)">
<path transform="matrix(4.1212546,-47.707719,47.707719,4.1212546,1.4560547,168.42546)" d="M-2.182534 1.60496H-1.579534V2.20796H-2.182534Z" fill="#ffffff"/>
</g>
</g>
"/>
</mask>
<clipPath id="clip_12">
<path transform="matrix(4.1212546,-47.707719,47.707719,4.1212546,1.4560547,168.42546)" d="M-8.045578-.333007H4.4991V12.211671H-8.045578Z"/>
</clipPath>
<mask id="mask_13">
<g>
<clipPath id="clip_14">
<path transform="matrix(-4.1212546,-47.707719,-47.707719,4.1212546,586.73788,552.681)" d="M.008795-.333007H12.553472V12.211671H.008795Z"/>
</clipPath>
<g clip-path="url(#clip_14)">
<path transform="matrix(-4.1212546,-47.707719,-47.707719,4.1212546,586.73788,552.681)" d="M5.871839 1.60496H6.474839V2.20796H5.871839Z" fill="#ffffff"/>
</g>
</g>
"/>
</mask>
<clipPath id="clip_15">
<path transform="matrix(-4.1212546,-47.707719,-47.707719,4.1212546,586.73788,552.681)" d="M.008795-.333007H12.553472V12.211671H.008795Z"/>
</clipPath>
</defs>
<g>
<g clip-path="url(#clip_0)">
<path transform="matrix(47.885374,0,0,47.885374,174.73067,174.73067)" d="M-1.266812 .745181C-1.282809 .784015-1.300155 .815624-1.318851 .840008-1.337547 .864392-1.359951 .888149-1.386062 .911281L-1.542435 .857684-1.536341 .84289-1.41537 .835399C-1.388607 .821188-1.366903 .805254-1.350256 .787596-1.33361 .769939-1.32097 .750631-1.312337 .729673-1.29761 .693921-1.29524 .661911-1.305226 .633643-1.315213 .605376-1.336233 .58464-1.368287 .571437-1.39356 .561027-1.416097 .558413-1.435896 .563596-1.455696 .568779-1.47624 .580144-1.497528 .597692-1.518816 .61524-1.544202 .637049-1.573686 .663117-1.612672 .69825-1.648547 .722768-1.681312 .73667-1.714076 .750572-1.751416 .74889-1.793333 .731624-1.815524 .722483-1.834723 .708266-1.85093 .688973-1.867136 .669679-1.879598 .647422-1.888316 .622201-1.897034 .59698-1.901627 .570934-1.902095 .544064-1.902563 .517194-1.897719 .49143-1.887562 .466773-1.875628 .437802-1.861066 .412076-1.843875 .389596-1.826684 .367115-1.806538 .346213-1.783436 .326888L-1.631687 .378581-1.637781 .393375-1.756521 .400703C-1.780057 .414081-1.798516 .427386-1.811898 .44062-1.825281 .453854-1.836161 .470642-1.84454 .490984-1.855459 .51749-1.855598 .543209-1.844958 .56814-1.834318 .593071-1.815437 .611123-1.788315 .622295-1.75811 .634737-1.730506 .635112-1.705502 .623421-1.680498 .61173-1.6495 .588988-1.612509 .555197-1.579398 .525575-1.54966 .501954-1.523295 .484334-1.496931 .466714-1.471165 .456238-1.445999 .452905-1.420833 .449572-1.392531 .454381-1.361094 .46733-1.332122 .479264-1.30908 .495965-1.291967 .517435-1.274854 .538904-1.262936 .56292-1.256213 .589483-1.24949 .616045-1.247163 .64278-1.249234 .669686-1.251304 .696592-1.257164 .721757-1.266812 .745181M-.892293 .049226C-.927757 .096794-.968675 .125744-1.015045 .136077-1.061416 .146409-1.105713 .135836-1.147936 .104356-1.174126 .084831-1.193339 .056786-1.205577 .020221-1.217815-.016344-1.221483-.063568-1.216582-.121448-1.249371-.117621-1.276166-.115978-1.296968-.116519-1.31777-.117059-1.335345-.119976-1.349693-.125268-1.364042-.130561-1.378699-.138785-1.393664-.149943-1.414508-.165483-1.429903-.186939-1.439848-.214311-1.449793-.241683-1.452578-.271408-1.448203-.303488-1.443828-.335567-1.430682-.366304-1.408766-.395701-1.376888-.438458-1.342129-.464724-1.304491-.474499-1.266852-.484273-1.2328-.477804-1.202335-.45509-1.178283-.437159-1.164906-.409931-1.162201-.373405-1.159497-.336879-1.16266-.289136-1.171692-.230177-1.164627-.230731-1.156896-.231619-1.1485-.232843-1.140103-.234067-1.131707-.235291-1.12331-.236515L-.902201-.268747C-.91389-.299914-.92925-.33257-.948281-.366716-.967312-.400862-.989815-.436764-1.015789-.474423L-1.105632-.419167-1.118459-.42873-.975008-.621141-.962181-.611577-.983921-.520515C-.95886-.476053-.936071-.433284-.915554-.392209-.895036-.351135-.878457-.311748-.865816-.274051L-.71188-.296491-.633408-.341515-.620581-.331952-.725778-.190851-.840531-.174123C-.834148-.133608-.834804-.094806-.842498-.057717-.850192-.020628-.86679 .01502-.892293 .049226M-1.355131-.243453C-1.336959-.229905-1.31667-.222263-1.294265-.220527-1.27186-.218791-1.242397-.220108-1.205876-.224479-1.205845-.260213-1.209298-.290437-1.216235-.31515-1.223172-.339864-1.237598-.360389-1.259511-.376727-1.279821-.391869-1.300873-.398209-1.322666-.395746-1.344459-.393284-1.362727-.382165-1.377471-.36239-1.391417-.343683-1.396659-.323268-1.393196-.301145-1.389732-.279021-1.377044-.259791-1.355131-.243453M-1.109418 .005846C-1.075211 .031348-1.040785 .040383-1.00614 .032951-.971494 .025519-.942815 .00657-.920102-.023895-.889419-.065049-.875957-.113221-.879714-.168411L-1.09043-.138409C-1.107621-.135426-1.123814-.132947-1.139009-.13097-1.154203-.128993-1.168331-.127053-1.181392-.125149-1.179023-.089289-1.172181-.062775-1.160865-.045607-1.149549-.02844-1.1324-.011288-1.109418 .005846M-.372895-.585223-.382593-.597949-.352487-.662382-.521455-1.308103-.47771-1.34144 .095871-1.007838 .170981-1.019816 .180679-1.00709-.029297-.847072-.038995-.859798 .009782-.940975-.158178-1.039287-.349861-.893209-.298213-.705001-.210794-.728873-.201096-.716147-.372895-.585223M-.364905-.950895-.209014-1.069697-.433037-1.201979-.364905-.950895M.526311-1.189004 .520305-1.203834 .580367-1.271314 .374665-1.779242 .284574-1.785912 .278568-1.800742 .535312-1.904719 .541318-1.889889 .471987-1.818655 .678065-1.309801 .897734-1.398763 .898979-1.584837 .913809-1.590843 .999017-1.380442 .526311-1.189004M1.097333-1.41645 1.094186-1.432138 1.149463-1.476886 1.28026-2.131407 1.334185-2.142226 1.703813-1.591172 1.776585-1.569056 1.779733-1.553369 1.520892-1.501434 1.517744-1.517122 1.597139-1.568749 1.489175-1.730674 1.252885-1.683264 1.216918-1.491441 1.305965-1.47463 1.309112-1.458942 1.097333-1.41645M1.264615-1.741714 1.456785-1.780272 1.31329-1.997284 1.264615-1.741714M2.07106-1.554033 1.90943-2.172915 1.834954-2.212895 1.835587-2.228882 2.104377-2.218234 2.103743-2.202247 2.017345-2.16864 2.122546-1.742142 2.128541-1.741905 2.320405-2.214681 2.362372-2.213018 2.519235-1.726428 2.52523-1.72619 2.662799-2.142071 2.57937-2.183406 2.580004-2.199393 2.80183-2.190606 2.801196-2.174618 2.732824-2.141298 2.520707-1.53622 2.479739-1.537843 2.31884-2.023593 2.311846-2.02387 2.111028-1.552449 2.07106-1.554033M2.86962-1.498141 2.874181-1.513477 2.963223-1.528725 3.11888-2.052067 3.054173-2.115131 3.058734-2.130467 3.209219-2.085709 3.44205-1.525067 3.560646-1.923804 3.473038-1.990549 3.4776-2.005885 3.720101-1.933759 3.71554-1.918423 3.627741-1.903848 3.453839-1.319161 3.412624-1.33142 3.158892-1.941054 3.030033-1.507811 3.117641-1.441065 3.113079-1.425729 2.86962-1.498141M4.187699-.927196C4.130007-.964436 4.08775-1.008376 4.060926-1.059017 4.034103-1.109658 4.022405-1.162834 4.025834-1.218546 4.029262-1.274257 4.047788-1.328159 4.081412-1.380249 4.107444-1.420577 4.139871-1.453603 4.178693-1.479327 4.217515-1.505051 4.259548-1.523148 4.304791-1.533619 4.350034-1.544089 4.395451-1.545918 4.441042-1.539103 4.486633-1.532289 4.529313-1.516047 4.569081-1.490377 4.597647-1.471938 4.620557-1.454571 4.637811-1.438276 4.655065-1.421981 4.669495-1.405922 4.681102-1.390098 4.692709-1.374274 4.703823-1.35738 4.714444-1.339415L4.622952-1.186611 4.607829-1.196372 4.620359-1.343015C4.609992-1.36875 4.599096-1.38967 4.58767-1.405774 4.576244-1.421877 4.561009-1.436076 4.541965-1.448368 4.503317-1.473315 4.462082-1.485649 4.41826-1.48537 4.374438-1.485091 4.332226-1.472863 4.291624-1.448684 4.251023-1.424506 4.215717-1.389172 4.185709-1.342683 4.152085-1.290592 4.131793-1.240409 4.124833-1.192135 4.117874-1.14386 4.12263-1.10052 4.139102-1.062116 4.155573-1.023711 4.181453-.99312 4.21674-.970343 4.245866-.951542 4.272902-.939645 4.297847-.934652 4.322793-.929658 4.346542-.927421 4.369095-.92794L4.486126-.985703 4.500409-.976484 4.403013-.847724C4.370414-.85131 4.337581-.858221 4.304514-.868456 4.271446-.878692 4.232508-.898272 4.187699-.927196M4.491443-.735796 4.50266-.747206 4.570721-.726571 5.185841-.985669 5.225062-.947111 4.976439-.33191 4.998979-.259267 4.987762-.247858 4.799503-.432938 4.81072-.444347 4.89801-.407613 4.971431-.587849 4.799574-.756805 4.620626-.678911 4.65669-.595776 4.645473-.584367 4.491443-.735796M4.854534-.779901 4.994302-.642493 5.093373-.883055 4.854534-.779901M5.056527-.154327 5.069788-.163278 5.148259-.11852 5.60247-.425107 5.590308-.514623 5.603569-.523575 5.759101-.293154C5.798264-.235134 5.817109-.181297 5.815638-.131642 5.814166-.081987 5.792433-.042986 5.750438-.01464 5.719494 .006247 5.685055 .014211 5.647121 .009251 5.609188 .004291 5.572304-.011029 5.53647-.036709L5.41096 .276035 5.417777 .352268 5.404515 .36122 5.314441 .227775 5.458994-.101443 5.412559-.170238 5.207832-.03205 5.215809 .053053 5.202547 .062004 5.056527-.154327M5.695052-.289735 5.662043-.338637 5.456488-.19989 5.492853-.146014C5.515978-.111755 5.544901-.090056 5.579623-.080918 5.614345-.07178 5.646901-.077467 5.677292-.097981 5.708789-.119241 5.72615-.146845 5.729376-.180793 5.732602-.214741 5.72116-.251055 5.695052-.289735M5.437142 .435323 5.451837 .428994 5.520615 .487565 6.02392 .270797 6.028617 .180581 6.043312 .174252 6.241884 .635308 6.083913 .703345 6.077584 .68865 6.159329 .58267 6.066372 .366837 5.848702 .460586 5.914366 .613047 6.011688 .62666 6.018017 .641355 5.815042 .728774 5.808713 .714079 5.863851 .634803 5.798188 .482342 5.561231 .584397 5.664868 .825028 5.812209 .833431 5.818538 .848126 5.64679 .922096 5.437142 .435323" fill="#114b1e"/>
<path transform="matrix(47.885374,0,0,47.885374,174.73067,174.73067)" d="M-2.129195 3.110136-2.113909 3.105409-2.063476 3.156805-1.399343 3.21941-1.38605 3.262402-1.89725 3.684239-1.911852 3.758884-1.927137 3.76361-2.000398 3.526678-1.985112 3.521951-1.926634 3.59598-1.772045 3.469677-1.843829 3.237522-2.042433 3.221474-2.050101 3.31177-2.065387 3.316496-2.129195 3.110136M-1.784489 3.243248-1.725999 3.432412-1.520223 3.26516-1.784489 3.243248M-1.826345 3.99603-1.812399 3.988188-1.738324 4.038317-1.262397 3.770716-1.264506 3.68127-1.25056 3.673429-1.178513 3.801563-1.409688 4.36979-1.038361 4.161003-1.054249 4.055213-1.040302 4.047371-.918264 4.264414-.932211 4.272256-1.004924 4.222509-1.536637 4.521477-1.554771 4.489225-1.303052 3.873882-1.704887 4.099823-1.689871 4.206103-1.703818 4.213945-1.826345 3.99603M-1.330331 4.812418-1.318386 4.801773-1.235298 4.834884-.826189 4.470283-.849553 4.383946-.837609 4.3733-.642667 4.592039C-.593876 4.646786-.561887 4.702219-.5467 4.758338-.531513 4.814457-.53186 4.867676-.547739 4.917995-.563619 4.968313-.59296 5.012545-.635762 5.050691-.674582 5.085288-.716294 5.110629-.760896 5.126715-.805498 5.1428-.85039 5.149544-.89557 5.146945-.94075 5.144346-.984364 5.132983-1.026411 5.112858-1.068458 5.092732-1.106336 5.063757-1.140046 5.025931L-1.330331 4.812418M-.69903 4.611462-.765563 4.536807-1.176165 4.902739-1.099652 4.988592C-1.064167 5.028408-1.025115 5.055444-.982494 5.0697-.939873 5.083957-.896272 5.085284-.851692 5.073683-.807112 5.062082-.763918 5.037652-.722111 5.000394-.680802 4.963579-.651691 4.923347-.634779 4.879699-.617866 4.83605-.614589 4.791381-.624945 4.745692-.635302 4.700003-.659997 4.655259-.69903 4.611462M-.291962 5.784007C-.326305 5.761007-.353253 5.738346-.372805 5.716024-.392358 5.693703-.410608 5.66764-.427556 5.637835L-.344607 5.496006-.331313 5.504909-.349584 5.620249C-.340772 5.650221-.329453 5.675253-.315628 5.695343-.301802 5.715434-.285196 5.731972-.265809 5.744955-.233128 5.766842-.201759 5.775414-.171702 5.77067-.141646 5.765925-.116787 5.748874-.097126 5.719517-.080804 5.695144-.073406 5.672417-.074933 5.651335-.076461 5.630253-.083716 5.607541-.096701 5.5832-.109685 5.558858-.125388 5.530489-.14381 5.498093-.160941 5.467363-.17438 5.439507-.184127 5.414525-.193875 5.389543-.197799 5.365452-.195901 5.342251-.194004 5.31905-.184522 5.294709-.167458 5.269228-.154845 5.250395-.137941 5.235038-.116745 5.223156-.095548 5.211275-.072142 5.203281-.046524 5.199174-.020907 5.195068 .004609 5.195307 .030023 5.19989 .055437 5.204474 .078669 5.213814 .099718 5.227911 .125198 5.244975 .146699 5.263788 .164222 5.284348 .181744 5.304909 .198151 5.328334 .213442 5.354622L.132719 5.493127 .119425 5.484224 .139632 5.371385C.12989 5.343999 .119951 5.322299 .109815 5.306283 .099679 5.290268 .085194 5.275954 .066361 5.263341 .041988 5.247019 .016344 5.24188-.010571 5.247925-.037487 5.25397-.059106 5.269179-.075429 5.293552-.094348 5.321802-.100508 5.34957-.093909 5.376857-.08731 5.404143-.071667 5.438891-.046979 5.481101-.024319 5.520347-.006917 5.554267 .005226 5.582859 .01737 5.611452 .022583 5.638412 .020865 5.66374 .019148 5.689068 .00883 5.715857-.01009 5.744107-.027525 5.770141-.048367 5.78928-.072614 5.801525-.096862 5.81377-.122162 5.820697-.148514 5.822306-.174865 5.823914-.200653 5.821087-.225877 5.813822-.2511 5.806558-.273129 5.79662-.291962 5.784007M.103381 6.017341 .109991 6.00277 .19937 5.999394 .425766 5.500346 .369437 5.430868 .376047 5.416297 .821366 5.618318 .750308 5.774954 .735737 5.768344 .727611 5.636181 .50814 5.536617 .410228 5.752446 .565042 5.822678 .644865 5.767749 .659436 5.774359 .56896 5.973796 .55439 5.967186 .54232 5.872765 .387505 5.802533 .280918 6.037486 .525889 6.148618 .634818 6.058577 .649388 6.065187 .574199 6.230929 .103381 6.017341M.830147 6.320092 .834077 6.304582 .921451 6.285457 1.05605 5.754245 .988326 5.69582 .992256 5.680311 1.242352 5.74368C1.310208 5.760874 1.360123 5.78848 1.392098 5.826498 1.424073 5.864516 1.433838 5.908083 1.421393 5.957197 1.412223 5.993387 1.391716 6.022749 1.359872 6.045285 1.328028 6.06782 1.289867 6.081362 1.245387 6.08591L1.36153 6.401092 1.416666 6.4522 1.412736 6.46771 1.273147 6.43234 1.159513 6.090972 1.069362 6.06813 1.008939 6.306594 1.071572 6.364759 1.067642 6.380269 .830147 6.320092M1.206548 5.791346 1.143539 5.775381 1.082871 6.014814 1.151696 6.032253C1.192409 6.042569 1.229082 6.039654 1.261714 6.023508 1.294346 6.007362 1.315165 5.981517 1.324172 5.945974 1.333341 5.909784 1.327339 5.877831 1.306165 5.850114 1.284991 5.822398 1.251785 5.802809 1.206548 5.791346M1.876287 6.512156 1.660637 5.884466 1.593803 5.845489 1.594739 5.829516 1.844311 5.844141 1.843375 5.860114 1.755358 5.89202 1.755065 5.897011 1.914952 6.365166 1.919944 6.365459 2.132652 5.915131 2.132886 5.911137 2.053015 5.872399 2.053951 5.856426 2.263592 5.868711 2.262656 5.884684 2.203998 5.911298 1.911227 6.514203 1.876287 6.512156M2.451538 6.506573 2.449964 6.49065 2.525642 6.442975 2.471738 5.897633 2.388191 5.865696 2.386617 5.849774 2.635405 5.825182 2.636979 5.841105 2.561301 5.88878 2.615205 6.434122 2.698752 6.466059 2.700326 6.481982 2.451538 6.506573M3.281079 6.37601C3.215255 6.393077 3.154953 6.394249 3.100171 6.379527 3.045389 6.364805 2.999027 6.337397 2.961083 6.297303 2.923139 6.25721 2.896387 6.207155 2.880826 6.14714 2.868946 6.101322 2.866484 6.0553 2.873438 6.009075 2.880393 5.96285 2.895013 5.91963 2.9173 5.879416 2.939588 5.839202 2.968472 5.804509 3.003952 5.775337 3.039433 5.746165 3.07976 5.725723 3.124933 5.714011 3.157199 5.705645 3.18517 5.700631 3.208844 5.698969 3.232518 5.697308 3.254106 5.697564 3.27361 5.699739 3.293113 5.701914 3.313071 5.705176 3.333482 5.709526L3.382244 5.877669 3.36482 5.882187 3.275153 5.779402C3.246113 5.768336 3.221393 5.761315 3.200993 5.75834 3.180593 5.755365 3.158778 5.756889 3.135546 5.762912 3.089082 5.774959 3.050632 5.797325 3.020194 5.830011 2.989757 5.862696 2.96928 5.901924 2.958764 5.947695 2.948249 5.993466 2.949767 6.042487 2.96332 6.094759 2.979215 6.156065 3.002974 6.205863 3.034596 6.244152 3.066218 6.282441 3.102261 6.308564 3.142726 6.322522 3.183191 6.336479 3.224397 6.33802 3.266343 6.327145 3.301836 6.317942 3.330386 6.305202 3.351992 6.288925 3.373598 6.272648 3.392169 6.255953 3.407705 6.238839L3.43893 6.120205 3.455385 6.115939 3.484643 6.27261C3.468439 6.287142 3.451415 6.300509 3.433573 6.312711 3.415731 6.324913 3.394728 6.336213 3.370564 6.34661 3.3464 6.357008 3.316572 6.366808 3.281079 6.37601M3.788411 6.203492 3.781534 6.189045 3.836576 6.118544 3.601048 5.623741 3.511623 5.622007 3.504746 5.607561 3.946277 5.39739 4.020202 5.552694 4.005755 5.55957 3.899487 5.480575 3.681882 5.584156 3.783744 5.79815 3.937241 5.725084 3.946714 5.628652 3.961161 5.621775 4.055286 5.819516 4.04084 5.826393 3.96088 5.774745 3.807382 5.847811 3.91827 6.080766 4.161157 5.965151 4.162554 5.823832 4.177001 5.816955 4.255224 5.981287 3.788411 6.203492M4.648241 5.740307C4.614326 5.763934 4.583417 5.780795 4.555513 5.790891 4.527609 5.800987 4.496693 5.808509 4.462766 5.813458L4.360814 5.68461 4.373943 5.675464 4.47474 5.734429C4.505865 5.73712 4.533299 5.73568 4.557042 5.730108 4.580785 5.724535 4.602229 5.71508 4.621374 5.701742 4.653648 5.679259 4.67304 5.653155 4.679552 5.623431 4.686063 5.593708 4.67922 5.56435 4.659022 5.535358 4.642255 5.51129 4.623774 5.496134 4.60358 5.48989 4.583387 5.483645 4.559591 5.482145 4.532194 5.485388 4.504797 5.48863 4.47266 5.492941 4.435782 5.49832 4.400927 5.503103 4.370091 5.505491 4.343275 5.505486 4.316458 5.50548 4.292589 5.500375 4.271667 5.490169 4.250745 5.479964 4.231519 5.46228 4.213989 5.437118 4.201032 5.418519 4.192874 5.397187 4.189515 5.373122 4.186155 5.349056 4.187221 5.324345 4.192712 5.298988 4.198203 5.273631 4.207705 5.24995 4.221217 5.227942 4.234729 5.205935 4.251878 5.187691 4.272664 5.17321 4.297827 5.15568 4.323171 5.142493 4.348696 5.133648 4.374221 5.124803 4.402009 5.118038 4.432058 5.113354L4.531723 5.23892 4.518594 5.248066 4.42083 5.188207C4.391777 5.187322 4.367948 5.188689 4.349343 5.192306 4.330738 5.195924 4.312137 5.204211 4.293538 5.217168 4.26947 5.233935 4.255357 5.255955 4.2512 5.283226 4.247042 5.310497 4.253347 5.336167 4.270115 5.360235 4.28955 5.388133 4.313177 5.40397 4.340995 5.407746 4.368813 5.411522 4.406871 5.409587 4.455168 5.40194 4.499969 5.395104 4.537894 5.391229 4.568945 5.390316 4.599996 5.389402 4.627006 5.394351 4.649975 5.405162 4.672944 5.415973 4.694146 5.435327 4.713581 5.463224 4.731492 5.488934 4.741742 5.515309 4.74433 5.542349 4.746918 5.56939 4.74417 5.595476 4.736085 5.620609 4.728 5.645741 4.715988 5.668735 4.700048 5.689589 4.684108 5.710444 4.666839 5.72735 4.648241 5.740307M5.237256 5.243974 5.225335 5.233301 5.248899 5.147018 4.840631 4.781476 4.757467 4.814395 4.745546 4.803722 4.918979 4.610018 4.930899 4.620691 4.900665 4.714424 5.309678 5.080634 5.471771 4.899596 5.392713 4.737538 5.403386 4.725617 5.568779 4.873702 5.237256 5.243974M5.723789 4.66695 5.710203 4.6585 5.718489 4.569442 5.253154 4.280016 5.176936 4.326822 5.163349 4.318371 5.300668 4.097592 5.314255 4.106043 5.300687 4.203592 5.766871 4.493546 5.895212 4.287203 5.789318 4.141259 5.797768 4.127673 5.98628 4.244922 5.723789 4.66695M6.244736 3.689321C6.220238 3.752755 6.186043 3.802439 6.142151 3.838373 6.098258 3.874306 6.048964 3.896005 5.99427 3.903469 5.939575 3.910932 5.883309 3.903496 5.825472 3.88116 5.781317 3.864108 5.742486 3.839285 5.708978 3.806692 5.67547 3.774099 5.648872 3.737027 5.629185 3.695478 5.609498 3.65393 5.598143 3.610238 5.595118 3.564404 5.592094 3.518571 5.598987 3.473887 5.615799 3.430354 5.627808 3.399259 5.640036 3.373608 5.652485 3.353403 5.664933 3.333198 5.677725 3.315805 5.690859 3.301224 5.703994 3.286644 5.718277 3.272328 5.733709 3.258277L5.898759 3.316658 5.892275 3.333449 5.756491 3.346402C5.730573 3.363549 5.71046 3.379544 5.696152 3.394386 5.681845 3.409229 5.670368 3.427844 5.661722 3.450232 5.644429 3.495009 5.640193 3.53929 5.649011 3.583073 5.65783 3.626857 5.677771 3.66636 5.708834 3.701583 5.739898 3.736805 5.780616 3.764143 5.830991 3.783597 5.890071 3.806413 5.944383 3.816132 5.993927 3.812754 6.043471 3.809376 6.085706 3.795314 6.120633 3.770568 6.15556 3.745822 6.180829 3.713238 6.19644 3.672814 6.209649 3.638609 6.215937 3.607985 6.215304 3.580941 6.214671 3.553897 6.211929 3.529076 6.207078 3.506478L6.128878 3.411959 6.135002 3.3961 6.279363 3.463643C6.281727 3.48528 6.282666 3.506904 6.282182 3.528514 6.281698 3.550124 6.278638 3.573776 6.273003 3.599472 6.267367 3.625167 6.257945 3.655117 6.244736 3.689321M6.402969 3.153191C6.399133 3.16941 6.389994 3.181977 6.375554 3.190892 6.361113 3.199808 6.345784 3.202347 6.329565 3.19851 6.313346 3.194673 6.300779 3.185534 6.291864 3.171094 6.282949 3.156654 6.280409 3.141324 6.284246 3.125105 6.288083 3.108886 6.297222 3.096319 6.311662 3.087404 6.326103 3.078489 6.341432 3.07595 6.357651 3.079787 6.37387 3.083624 6.386437 3.092762 6.395352 3.107202 6.404267 3.121643 6.406806 3.136972 6.402969 3.153191" fill="#114b1e"/>
<g mask="url(#mask_1)">
<g>
<g clip-path="url(#clip_3)">
<g mask="url(#mask_4)">
<g>
<g clip-path="url(#clip_6)">
<path transform="matrix(47.885374,0,0,47.885374,174.73067,174.73067)" d="M3.672303 .143084H.143084V3.672303H3.672303ZM0 0V3.815387H3.815387V0Z" fill="#77877c" fill-rule="evenodd"/>
</g>
</g>
</g>
<g mask="url(#mask_7)">
<g>
<g clip-path="url(#clip_9)">
<path transform="matrix(47.885374,0,0,47.885374,174.73067,174.73067)" d="M4.149221 .620002H.620002V4.149221H4.149221ZM.476918 .476918V4.292305H4.292305V.476918Z" fill="#77877c" fill-rule="evenodd"/>
</g>
</g>
</g>
<path transform="matrix(47.885374,0,0,47.885374,174.73067,174.73067)" d="M1.516745 1.980699C1.514988 1.968404 1.510685 1.956812 1.503835 1.945922 1.496985 1.935033 1.488203 1.925636 1.477489 1.917732 1.466775 1.909828 1.454656 1.903593 1.441131 1.899026 1.427607 1.89446 1.413468 1.892176 1.398714 1.892176 1.385365 1.892176 1.372895 1.893582 1.361303 1.896392 1.34971 1.899202 1.339611 1.903505 1.331005 1.909301 1.322398 1.915097 1.315548 1.922562 1.310455 1.931696 1.305361 1.940829 1.302814 1.951719 1.302814 1.964365 1.302814 1.980172 1.306239 1.992731 1.313089 2.00204 1.319939 2.011349 1.328721 2.018989 1.339435 2.024961 1.350149 2.030932 1.362005 2.035675 1.375003 2.039188 1.388 2.0427 1.400646 2.046564 1.412941 2.05078L1.557844 2.099257C1.577868 2.106282 1.596661 2.115943 1.614225 2.128237 1.631789 2.140532 1.646982 2.155462 1.659804 2.173026 1.672626 2.19059 1.682725 2.210788 1.690102 2.233622 1.697479 2.256455 1.701167 2.282099 1.701167 2.310552 1.701167 2.349193 1.694054 2.384497 1.679827 2.416464 1.6656 2.44843 1.645665 2.47583 1.620021 2.498663 1.594378 2.521497 1.563641 2.539236 1.52781 2.551883 1.491979 2.564529 1.452284 2.570852 1.408726 2.570852 1.378164 2.570852 1.349271 2.567427 1.322047 2.560577 1.294823 2.553727 1.269969 2.543803 1.247487 2.530806 1.225005 2.517808 1.205334 2.502264 1.188472 2.484173 1.171611 2.466082 1.158438 2.44562 1.148953 2.422787H1.09468V2.264183H1.285426V2.296852C1.285426 2.31266 1.287973 2.327238 1.293066 2.340587 1.29816 2.353936 1.3058 2.365528 1.315987 2.375364 1.326174 2.3852 1.338996 2.39284 1.354453 2.398285 1.369909 2.40373 1.388 2.406452 1.408726 2.406452 1.440341 2.406452 1.464404 2.399163 1.480914 2.384585 1.497424 2.370007 1.505679 2.34972 1.505679 2.323725 1.505679 2.310377 1.502781 2.299224 1.496985 2.290266 1.491189 2.281308 1.483724 2.273756 1.474591 2.267608 1.465458 2.261461 1.45527 2.256279 1.444029 2.252064 1.432788 2.247849 1.421723 2.243985 1.410833 2.240472L1.290168 2.20148C1.267335 2.194454 1.245292 2.184618 1.224039 2.171972 1.202787 2.159326 1.183993 2.143518 1.167659 2.124549 1.151324 2.10558 1.138327 2.083361 1.128667 2.057893 1.119006 2.032425 1.114176 2.003357 1.114176 1.970688 1.114176 1.932749 1.121202 1.898939 1.135253 1.869255 1.149304 1.839572 1.168976 1.814543 1.194268 1.794169 1.219561 1.773795 1.249595 1.758338 1.284372 1.7478 1.319149 1.737261 1.357263 1.731992 1.398714 1.731992 1.431383 1.731992 1.461593 1.735768 1.489345 1.743321 1.517096 1.750874 1.541949 1.760973 1.563904 1.773619 1.585859 1.786265 1.604477 1.800755 1.619758 1.81709 1.635039 1.833425 1.646719 1.850374 1.654798 1.867938H1.70749V2.027068H1.516745V1.980699M2.359293 2.580336 2.253381 2.47179C2.224576 2.49919 2.191995 2.521058 2.155637 2.537392 2.11928 2.553727 2.078619 2.561894 2.033655 2.561894 1.997824 2.561894 1.964277 2.555571 1.933013 2.542925 1.901749 2.530279 1.874525 2.51289 1.85134 2.49076 1.828155 2.468629 1.809889 2.442458 1.79654 2.412248 1.783191 2.382038 1.776517 2.349545 1.776517 2.314768 1.776517 2.270155 1.78688 2.230636 1.807605 2.19621 1.828331 2.161785 1.857136 2.131575 1.894021 2.10558 1.894372 2.10558 1.894899 2.105228 1.895601 2.104526L1.88559 2.093987C1.86381 2.070803 1.847037 2.045686 1.835269 2.018638 1.823501 1.991589 1.817617 1.961203 1.817617 1.92748 1.817617 1.898675 1.823413 1.871275 1.835005 1.84528 1.846598 1.819286 1.862669 1.796364 1.883219 1.776517 1.903769 1.75667 1.927831 1.74095 1.955407 1.729358 1.982983 1.717765 2.012929 1.711969 2.045247 1.711969 2.079321 1.711969 2.110234 1.717941 2.137985 1.729884 2.165737 1.741828 2.189448 1.757723 2.20912 1.777571 2.228792 1.797418 2.243985 1.820252 2.254699 1.846071 2.265413 1.87189 2.27077 1.898675 2.27077 1.926426 2.27077 1.946098 2.268223 1.965067 2.263129 1.983334 2.258036 2.0016 2.25101 2.018638 2.242053 2.034445 2.233095 2.050253 2.222644 2.064743 2.210701 2.077916 2.198757 2.091089 2.186111 2.102418 2.172762 2.111903 2.16679 2.116118 2.160994 2.120246 2.155374 2.124285 2.149753 2.128325 2.143957 2.132277 2.137985 2.136141L2.224401 2.221503C2.229319 2.205695 2.233446 2.190502 2.236783 2.175924 2.24012 2.161346 2.242843 2.147558 2.244951 2.13456H2.4025C2.400041 2.168635 2.394157 2.203324 2.384848 2.238628 2.375539 2.273931 2.362805 2.308269 2.346646 2.341641L2.481012 2.473371 2.359293 2.580336M1.943024 2.311606C1.943024 2.323198 1.945308 2.334352 1.949874 2.345066 1.954441 2.35578 1.960852 2.365352 1.969107 2.373783 1.977362 2.382214 1.987286 2.388888 1.998878 2.393806 2.01047 2.398724 2.023468 2.401183 2.03787 2.401183 2.060001 2.401183 2.079761 2.397407 2.097149 2.389854 2.114537 2.382302 2.130257 2.372202 2.144308 2.359556L2.006255 2.218341C1.99677 2.224313 1.988076 2.23046 1.980172 2.236783 1.972269 2.243106 1.965594 2.249956 1.960149 2.257333 1.954704 2.26471 1.950489 2.272877 1.947503 2.281835 1.944517 2.290793 1.943024 2.300716 1.943024 2.311606M2.084239 1.994399C2.09548 1.98632 2.103472 1.976747 2.108214 1.965682 2.112957 1.954617 2.115328 1.941531 2.115328 1.926426 2.115328 1.916942 2.113484 1.907984 2.109795 1.899553 2.106107 1.891123 2.101013 1.883658 2.094514 1.877159 2.088016 1.87066 2.080551 1.865567 2.07212 1.861878 2.063689 1.85819 2.054732 1.856346 2.045247 1.856346 2.034006 1.856346 2.023819 1.858102 2.014686 1.861615 2.005552 1.865128 1.997649 1.870046 1.990974 1.876369 1.9843 1.882692 1.979118 1.890157 1.97543 1.898763 1.971742 1.907369 1.969897 1.91659 1.969897 1.926426 1.969897 1.940478 1.972444 1.95409 1.977538 1.967263 1.982631 1.980436 1.989745 1.991238 1.998878 1.999668L2.028386 2.028649C2.039275 2.022677 2.049463 2.016881 2.058947 2.011261 2.068432 2.00564 2.076862 2.00002 2.084239 1.994399M2.90413 2.410141H2.983695L2.947864 2.295272H2.702319L2.666488 2.410141H2.750796V2.554517H2.447815V2.410141H2.507358L2.724976 1.755704H2.936272L3.149148 2.410141H3.20711V2.554517H2.90413V2.410141M2.743946 2.16038H2.905184L2.824038 1.900607 2.743946 2.16038" fill="#114b1e"/>
</g>
</g>
</g>
<path transform="matrix(47.885374,0,0,47.885374,174.73067,174.73067)" d="M-1.217477 2.146153C-1.217477 .944443-.576373-.165982 .464338-.766836 1.505048-1.367691 2.787257-1.367691 3.827968-.766836 4.868679-.165982 5.509783 .944443 5.509783 2.146153 5.509783 3.347862 4.868679 4.458287 3.827968 5.059142 2.787257 5.659997 1.505048 5.659997 .464338 5.059142-.576373 4.458287-1.217477 3.347862-1.217477 2.146153ZM-1.167477 2.146153C-1.167477 3.329999-.535903 4.423918 .489338 5.015841 1.514578 5.607764 2.777727 5.607764 3.802968 5.015841 4.828209 4.423918 5.459783 3.329999 5.459783 2.146153 5.459783 .962307 4.828209-.131612 3.802968-.723535 2.777727-1.315458 1.514578-1.315458 .489338-.723535-.535903-.131612-1.167477 .962307-1.167477 2.146153Z"/>
<path transform="matrix(47.885374,0,0,47.885374,174.73067,174.73067)" d="M-2.708088 2.146153C-2.708088 .4119-1.782875-1.190617-.280968-2.057743 1.22094-2.92487 3.071366-2.92487 4.573273-2.057743 6.07518-1.190617 7.000394 .4119 7.000394 2.146153 7.000394 3.880406 6.07518 5.482922 4.573273 6.350049 3.071366 7.217175 1.22094 7.217175-.280968 6.350049-1.782875 5.482922-2.708088 3.880406-2.708088 2.146153ZM-2.658088 2.146153C-2.658088 3.862543-1.742405 5.448552-.255968 6.306747 1.23047 7.164942 3.061836 7.164942 4.548273 6.306747 6.03471 5.448552 6.950394 3.862543 6.950394 2.146153 6.950394 .429763 6.03471-1.156247 4.548273-2.014442 3.061836-2.872637 1.23047-2.872637-.255968-2.014442-1.742405-1.156247-2.658088 .429763-2.658088 2.146153Z"/>
<g mask="url(#mask_10)">
<g>
<g clip-path="url(#clip_12)">
<path transform="matrix(4.1212546,-47.707719,47.707719,4.1212546,1.4560547,168.42546)" d="M-2.019838 2.113405C-2.009491 2.121229-1.996872 2.118705-1.982235 2.108105L-1.881034 2.033654-1.779833 2.108105C-1.765447 2.118705-1.752829 2.121229-1.742481 2.113405-1.732388 2.105833-1.730368 2.093215-1.736171 2.076557L-1.776299 1.957439-1.674088 1.884252C-1.659705 1.874156-1.653395 1.8628-1.657433 1.850432-1.661723 1.838573-1.67308 1.832767-1.690998 1.833018L-1.816175 1.834028-1.85403 1.714405C-1.859582 1.697244-1.868416 1.687906-1.881034 1.687906-1.893906 1.687906-1.902485 1.697244-1.908037 1.714405L-1.946145 1.834028-2.071322 1.833018C-2.088988 1.832767-2.100597 1.838573-2.104635 1.850432-2.108673 1.8628-2.102363 1.874156-2.087978 1.884252L-1.985768 1.957439-2.025895 2.076557C-2.031699 2.093215-2.02968 2.105833-2.019838 2.113405Z" fill="#77877c"/>
</g>
</g>
</g>
<g mask="url(#mask_13)">
<g>
<g clip-path="url(#clip_15)">
<path transform="matrix(-4.1212546,-47.707719,-47.707719,4.1212546,586.73788,552.681)" d="M6.034535 2.113405C6.044882 2.121229 6.0575 2.118705 6.072138 2.108105L6.173339 2.033654 6.27454 2.108105C6.288926 2.118705 6.301543 2.121229 6.311891 2.113405 6.321985 2.105833 6.324005 2.093215 6.318201 2.076557L6.278074 1.957439 6.380284 1.884252C6.394668 1.874156 6.400978 1.8628 6.39694 1.850432 6.39265 1.838573 6.381292 1.832767 6.363375 1.833018L6.238198 1.834028 6.200343 1.714405C6.194791 1.697244 6.185957 1.687906 6.173339 1.687906 6.160467 1.687906 6.151887 1.697244 6.146335 1.714405L6.108228 1.834028 5.983051 1.833018C5.965385 1.832767 5.953776 1.838573 5.949738 1.850432 5.9457 1.8628 5.952009 1.874156 5.966394 1.884252L6.068605 1.957439 6.028478 2.076557C6.022673 2.093215 6.024692 2.105833 6.034535 2.113405Z" fill="#77877c"/>
</g>
</g>
</g>
</g>
</g>
</svg>
