<svg xmlns="http://www.w3.org/2000/svg" version="1.1" xmlns:xlink="http://www.w3.org/1999/xlink" xmlns:svgjs="http://svgjs.dev/svgjs" viewBox="0 0 14.870821550876304 2.9132959161106804"><g transform="matrix(1,0,0,1,2.8016968358649583,0.55557920805534)"><g><path d=" M 0.28875 0.2639999999999999 Q 0.3165 0.30599999999999994 0.357 0.3374999999999999 Q 0.3975 0.369 0.4665 0.4139999999999999 Q 0.5415 0.46199999999999997 0.5865 0.49799999999999994 Q 0.6315000000000001 0.534 0.663 0.58575 Q 0.6945 0.6375 0.6945 0.705 Q 0.6945 0.7829999999999999 0.6525 0.84375 Q 0.6105 0.9045 0.53625 0.9382499999999999 Q 0.462 0.972 0.3705 0.972 Q 0.303 0.972 0.2295 0.9532499999999999 Q 0.156 0.9345 0.1305 0.9119999999999999 Q 0.123 0.9059999999999999 0.11925000000000001 0.9007499999999999 Q 0.1155 0.8955 0.1155 0.8835 L 0.111 0.645 L 0.111 0.6435 Q 0.111 0.6375 0.11850000000000001 0.6367499999999999 Q 0.126 0.6359999999999999 0.1275 0.6419999999999999 Q 0.17250000000000001 0.7334999999999999 0.20625000000000002 0.7905 Q 0.24 0.8474999999999999 0.29175 0.891 Q 0.3435 0.9345 0.40950000000000003 0.9345 Q 0.46950000000000003 0.9345 0.5085000000000001 0.90225 Q 0.5475 0.87 0.5475 0.7919999999999999 Q 0.5475 0.726 0.51825 0.6764999999999999 Q 0.489 0.627 0.447 0.5925 Q 0.405 0.5579999999999999 0.3315 0.51 Q 0.2595 0.46349999999999997 0.21975 0.4305 Q 0.18 0.39749999999999996 0.1515 0.351 Q 0.123 0.3045 0.123 0.24149999999999994 Q 0.123 0.16199999999999992 0.16875 0.10724999999999996 Q 0.2145 0.05249999999999999 0.28650000000000003 0.026249999999999885 Q 0.3585 -1.1102230246251565e-16 0.438 -1.1102230246251565e-16 Q 0.4905 -1.1102230246251565e-16 0.5445 0.009749999999999925 Q 0.5985 0.019499999999999962 0.6315000000000001 0.03299999999999992 Q 0.645 0.038999999999999924 0.6495 0.04574999999999996 Q 0.654 0.05249999999999999 0.654 0.06299999999999994 L 0.654 0.2835 Q 0.654 0.2879999999999999 0.6465 0.2902499999999999 Q 0.639 0.2925 0.6375000000000001 0.2879999999999999 L 0.6255000000000001 0.25949999999999995 Q 0.588 0.16499999999999992 0.5377500000000001 0.09899999999999998 Q 0.4875 0.03299999999999992 0.3975 0.03299999999999992 Q 0.3375 0.03299999999999992 0.29925 0.0674999999999999 Q 0.261 0.10199999999999998 0.261 0.16799999999999993 Q 0.261 0.22199999999999998 0.28875 0.2639999999999999 M 1.60052197265625 0.945 Q 1.60052197265625 0.954 1.5975219726562502 0.954 L 1.3860219726562502 0.954 Q 1.35302197265625 0.954 1.28702197265625 0.9089999999999999 Q 1.19402197265625 0.972 1.06652197265625 0.972 Q 0.95402197265625 0.972 0.8940219726562499 0.9262499999999999 Q 0.83402197265625 0.8805 0.83402197265625 0.816 Q 0.83402197265625 0.7605 0.87227197265625 0.7184999999999999 Q 0.91052197265625 0.6764999999999999 0.98702197265625 0.6194999999999999 Q 0.95102197265625 0.5714999999999999 0.93602197265625 0.5385 Q 0.9090219726562501 0.4784999999999999 0.9090219726562501 0.42899999999999994 Q 0.9090219726562501 0.37049999999999994 0.94202197265625 0.32624999999999993 Q 0.97502197265625 0.2819999999999999 1.02827197265625 0.2579999999999999 Q 1.08152197265625 0.23399999999999999 1.14302197265625 0.23399999999999999 Q 1.20602197265625 0.23399999999999999 1.25852197265625 0.2609999999999999 Q 1.31102197265625 0.2879999999999999 1.31102197265625 0.348 Q 1.31102197265625 0.40049999999999997 1.2727719726562499 0.4372499999999999 Q 1.23452197265625 0.474 1.15802197265625 0.522 L 1.11902197265625 0.5459999999999999 Q 1.19552197265625 0.6645 1.31402197265625 0.768 L 1.34852197265625 0.7965 Q 1.3740219726562501 0.744 1.3740219726562501 0.6855 Q 1.3740219726562501 0.6315 1.34702197265625 0.6014999999999999 Q 1.3200219726562499 0.5714999999999999 1.27652197265625 0.5714999999999999 Q 1.27202197265625 0.5714999999999999 1.27127197265625 0.5625 Q 1.27052197265625 0.5534999999999999 1.27652197265625 0.5534999999999999 L 1.5615219726562501 0.5519999999999999 Q 1.56752197265625 0.5519999999999999 1.56752197265625 0.5609999999999999 Q 1.56752197265625 0.57 1.5615219726562501 0.57 Q 1.52252197265625 0.57 1.5037719726562502 0.579 Q 1.48502197265625 0.588 1.47827197265625 0.60225 Q 1.47152197265625 0.6164999999999999 1.45952197265625 0.6525 Q 1.43102197265625 0.7484999999999999 1.3785219726562499 0.8205 Q 1.44752197265625 0.873 1.50677197265625 0.9029999999999999 Q 1.5660219726562499 0.9329999999999999 1.5975219726562502 0.9359999999999999 Q 1.60052197265625 0.9359999999999999 1.60052197265625 0.945 M 1.10702197265625 0.5265 Q 1.18202197265625 0.45449999999999996 1.18202197265625 0.37349999999999994 Q 1.18202197265625 0.3254999999999999 1.15877197265625 0.29399999999999993 Q 1.13552197265625 0.26249999999999996 1.1040219726562501 0.26249999999999996 Q 1.07702197265625 0.26249999999999996 1.06127197265625 0.2842499999999999 Q 1.0455219726562501 0.30599999999999994 1.0455219726562501 0.345 Q 1.0455219726562501 0.42299999999999993 1.10702197265625 0.5265 M 1.2615219726562499 0.891 Q 1.21502197265625 0.8564999999999999 1.16402197265625 0.8099999999999999 Q 1.06952197265625 0.7244999999999999 1.00802197265625 0.6465 Q 0.97652197265625 0.693 0.97652197265625 0.75 Q 0.97652197265625 0.8294999999999999 1.02902197265625 0.873 Q 1.08152197265625 0.9165 1.15952197265625 0.9165 Q 1.21952197265625 0.9165 1.2615219726562499 0.891 M 2.68352490234375 0.945 Q 2.68352490234375 0.954 2.67602490234375 0.954 Q 2.64602490234375 0.954 2.58302490234375 0.951 Q 2.51702490234375 0.948 2.48852490234375 0.948 Q 2.4510249023437503 0.948 2.39702490234375 0.951 Q 2.34602490234375 0.954 2.31602490234375 0.954 Q 2.3100249023437502 0.954 2.3100249023437502 0.945 Q 2.3100249023437502 0.9359999999999999 2.31602490234375 0.9359999999999999 Q 2.35502490234375 0.9359999999999999 2.37227490234375 0.92775 Q 2.38952490234375 0.9195 2.38952490234375 0.8985 Q 2.38952490234375 0.873 2.35952490234375 0.813 L 2.2035249023437498 0.5055 L 1.93652490234375 0.5055 L 1.83002490234375 0.741 Q 1.81052490234375 0.7845 1.81052490234375 0.822 Q 1.81052490234375 0.876 1.84877490234375 0.9059999999999999 Q 1.88702490234375 0.9359999999999999 1.95152490234375 0.9359999999999999 Q 1.95902490234375 0.9359999999999999 1.95902490234375 0.945 Q 1.95902490234375 0.954 1.95152490234375 0.954 Q 1.92452490234375 0.954 1.8735249023437501 0.951 Q 1.81652490234375 0.948 1.77452490234375 0.948 Q 1.73402490234375 0.948 1.67702490234375 0.951 Q 1.62602490234375 0.954 1.59452490234375 0.954 Q 1.58852490234375 0.954 1.58852490234375 0.945 Q 1.58852490234375 0.9359999999999999 1.59452490234375 0.9359999999999999 Q 1.63652490234375 0.9359999999999999 1.66502490234375 0.91875 Q 1.69352490234375 0.9015 1.72202490234375 0.85725 Q 1.75052490234375 0.813 1.78952490234375 0.726 L 2.11502490234375 0.010499999999999954 Q 2.11802490234375 0.005999999999999894 2.12852490234375 0.005999999999999894 Q 2.14052490234375 0.005999999999999894 2.14202490234375 0.010499999999999954 L 2.51702490234375 0.7484999999999999 Q 2.56952490234375 0.855 2.60402490234375 0.8955 Q 2.6385249023437503 0.9359999999999999 2.67602490234375 0.9359999999999999 Q 2.68352490234375 0.9359999999999999 2.68352490234375 0.945 M 1.95602490234375 0.46349999999999997 L 2.18252490234375 0.46349999999999997 L 2.06252490234375 0.22649999999999992 L 1.95602490234375 0.46349999999999997 M 3.345043212890625 0.8265 Q 3.345043212890625 0.8654999999999999 3.351043212890625 0.8827499999999999 Q 3.357043212890625 0.8999999999999999 3.374293212890625 0.9059999999999999 Q 3.391543212890625 0.9119999999999999 3.4305432128906252 0.9119999999999999 L 3.481543212890625 0.9119999999999999 Q 3.598543212890625 0.9119999999999999 3.684043212890625 0.84975 Q 3.7695432128906248 0.7875 3.798043212890625 0.6809999999999999 Q 3.798043212890625 0.6779999999999999 3.804043212890625 0.6779999999999999 Q 3.807043212890625 0.6779999999999999 3.810793212890625 0.68025 Q 3.814543212890625 0.6824999999999999 3.814543212890625 0.6839999999999999 Q 3.801043212890625 0.8325 3.801043212890625 0.9315 Q 3.801043212890625 0.9435 3.795793212890625 0.94875 Q 3.790543212890625 0.954 3.778543212890625 0.954 L 3.070543212890625 0.954 Q 3.067543212890625 0.954 3.067543212890625 0.945 Q 3.067543212890625 0.9359999999999999 3.070543212890625 0.9359999999999999 Q 3.118543212890625 0.9359999999999999 3.140293212890625 0.9285 Q 3.162043212890625 0.9209999999999999 3.170293212890625 0.89925 Q 3.178543212890625 0.8775 3.178543212890625 0.8325 L 3.178543212890625 0.1379999999999999 Q 3.178543212890625 0.09299999999999997 3.170293212890625 0.07199999999999995 Q 3.162043212890625 0.050999999999999934 3.139543212890625 0.042749999999999955 Q 3.117043212890625 0.034499999999999975 3.070543212890625 0.034499999999999975 Q 3.067543212890625 0.034499999999999975 3.067543212890625 0.025499999999999967 Q 3.067543212890625 0.01649999999999996 3.070543212890625 0.01649999999999996 L 3.147043212890625 0.017999999999999905 Q 3.216043212890625 0.020999999999999908 3.261043212890625 0.020999999999999908 Q 3.306043212890625 0.020999999999999908 3.375043212890625 0.017999999999999905 L 3.451543212890625 0.01649999999999996 Q 3.456043212890625 0.01649999999999996 3.456043212890625 0.025499999999999967 Q 3.456043212890625 0.034499999999999975 3.451543212890625 0.034499999999999975 Q 3.405043212890625 0.034499999999999975 3.382543212890625 0.042749999999999955 Q 3.3600432128906252 0.050999999999999934 3.352543212890625 0.07274999999999998 Q 3.345043212890625 0.09449999999999992 3.345043212890625 0.13949999999999996 L 3.345043212890625 0.8265 M 4.926017578125 0.945 Q 4.926017578125 0.954 4.918517578125 0.954 Q 4.8885175781250005 0.954 4.825517578125 0.951 Q 4.759517578125 0.948 4.731017578125 0.948 Q 4.693517578125 0.948 4.639517578125 0.951 Q 4.588517578125 0.954 4.5585175781250005 0.954 Q 4.552517578125 0.954 4.552517578125 0.945 Q 4.552517578125 0.9359999999999999 4.5585175781250005 0.9359999999999999 Q 4.597517578125 0.9359999999999999 4.614767578125 0.92775 Q 4.632017578125 0.9195 4.632017578125 0.8985 Q 4.632017578125 0.873 4.602017578125 0.813 L 4.446017578125 0.5055 L 4.179017578125 0.5055 L 4.072517578125 0.741 Q 4.053017578125 0.7845 4.053017578125 0.822 Q 4.053017578125 0.876 4.091267578125 0.9059999999999999 Q 4.129517578125 0.9359999999999999 4.194017578125 0.9359999999999999 Q 4.201517578125 0.9359999999999999 4.201517578125 0.945 Q 4.201517578125 0.954 4.194017578125 0.954 Q 4.167017578125 0.954 4.116017578125 0.951 Q 4.059017578125 0.948 4.017017578125 0.948 Q 3.976517578125 0.948 3.919517578125 0.951 Q 3.868517578125 0.954 3.837017578125 0.954 Q 3.831017578125 0.954 3.831017578125 0.945 Q 3.831017578125 0.9359999999999999 3.837017578125 0.9359999999999999 Q 3.879017578125 0.9359999999999999 3.907517578125 0.91875 Q 3.936017578125 0.9015 3.964517578125 0.85725 Q 3.993017578125 0.813 4.032017578125 0.726 L 4.357517578125 0.010499999999999954 Q 4.360517578125 0.005999999999999894 4.3710175781250005 0.005999999999999894 Q 4.383017578125 0.005999999999999894 4.384517578125 0.010499999999999954 L 4.759517578125 0.7484999999999999 Q 4.812017578125 0.855 4.846517578125 0.8955 Q 4.881017578125 0.9359999999999999 4.918517578125 0.9359999999999999 Q 4.926017578125 0.9359999999999999 4.926017578125 0.945 M 4.198517578125 0.46349999999999997 L 4.425017578125 0.46349999999999997 L 4.305017578125 0.22649999999999992 L 4.198517578125 0.46349999999999997 M 6.163503662109375 0.025499999999999967 Q 6.163503662109375 0.034499999999999975 6.160503662109375 0.034499999999999975 Q 6.105003662109375 0.034499999999999975 6.056253662109375 0.08174999999999999 Q 6.007503662109375 0.1289999999999999 5.976003662109375 0.2114999999999999 L 5.698503662109375 0.9525 Q 5.697003662109375 0.9584999999999999 5.682003662109375 0.9584999999999999 Q 5.667003662109375 0.9584999999999999 5.665503662109375 0.9525 L 5.473503662109375 0.5459999999999999 L 5.322003662109375 0.9525 Q 5.320503662109375 0.9584999999999999 5.305503662109375 0.9584999999999999 Q 5.290503662109375 0.9584999999999999 5.289003662109375 0.9525 L 4.906503662109375 0.1409999999999999 Q 4.884003662109375 0.09299999999999997 4.869753662109375 0.07199999999999995 Q 4.855503662109375 0.050999999999999934 4.838253662109375 0.042749999999999955 Q 4.821003662109375 0.034499999999999975 4.792503662109375 0.034499999999999975 Q 4.788003662109375 0.034499999999999975 4.788003662109375 0.025499999999999967 Q 4.788003662109375 0.01649999999999996 4.792503662109375 0.01649999999999996 Q 4.815003662109375 0.01649999999999996 4.824003662109375 0.017999999999999905 Q 4.854003662109375 0.020999999999999908 4.902003662109375 0.020999999999999908 Q 5.002503662109375 0.020999999999999908 5.071503662109375 0.017999999999999905 Q 5.091003662109375 0.01649999999999996 5.119503662109375 0.01649999999999996 Q 5.124003662109375 0.01649999999999996 5.124003662109375 0.025499999999999967 Q 5.124003662109375 0.034499999999999975 5.119503662109375 0.034499999999999975 Q 5.082003662109375 0.034499999999999975 5.066253662109375 0.041999999999999926 Q 5.050503662109375 0.04949999999999999 5.050503662109375 0.06899999999999995 Q 5.050503662109375 0.09449999999999992 5.085003662109375 0.16799999999999993 L 5.355003662109375 0.741 L 5.449503662109375 0.49349999999999994 L 5.283003662109375 0.1409999999999999 Q 5.257503662109375 0.08699999999999997 5.235003662109375 0.06074999999999997 Q 5.212503662109375 0.034499999999999975 5.187003662109375 0.034499999999999975 Q 5.182503662109375 0.034499999999999975 5.182503662109375 0.025499999999999967 Q 5.182503662109375 0.01649999999999996 5.187003662109375 0.01649999999999996 Q 5.202003662109375 0.01649999999999996 5.222253662109375 0.018749999999999933 Q 5.242503662109375 0.020999999999999908 5.280003662109375 0.020999999999999908 Q 5.365503662109375 0.020999999999999908 5.422503662109375 0.017999999999999905 Q 5.437503662109375 0.01649999999999996 5.461503662109375 0.01649999999999996 Q 5.466003662109375 0.01649999999999996 5.466003662109375 0.025499999999999967 Q 5.466003662109375 0.034499999999999975 5.461503662109375 0.034499999999999975 Q 5.440503662109375 0.034499999999999975 5.430753662109375 0.03974999999999995 Q 5.421003662109375 0.04499999999999993 5.421003662109375 0.058499999999999885 Q 5.421003662109375 0.08399999999999996 5.461503662109375 0.16799999999999993 L 5.527503662109375 0.3075 L 5.565003662109375 0.20699999999999996 Q 5.598003662109375 0.12149999999999994 5.598003662109375 0.07799999999999996 Q 5.598003662109375 0.034499999999999975 5.560503662109375 0.034499999999999975 Q 5.556003662109375 0.034499999999999975 5.556003662109375 0.025499999999999967 Q 5.556003662109375 0.01649999999999996 5.560503662109375 0.01649999999999996 Q 5.572503662109375 0.01649999999999996 5.586753662109375 0.018749999999999933 Q 5.601003662109375 0.020999999999999908 5.658003662109375 0.020999999999999908 Q 5.683503662109375 0.020999999999999908 5.719503662109375 0.017999999999999905 L 5.775003662109375 0.01649999999999996 Q 5.778003662109375 0.01649999999999996 5.778003662109375 0.025499999999999967 Q 5.778003662109375 0.034499999999999975 5.775003662109375 0.034499999999999975 Q 5.674503662109375 0.034499999999999975 5.608503662109375 0.2114999999999999 L 5.553003662109375 0.36 L 5.733003662109375 0.7394999999999999 L 5.926503662109375 0.22199999999999998 Q 5.9445036621093745 0.17399999999999993 5.9445036621093745 0.1349999999999999 Q 5.9445036621093745 0.08849999999999991 5.921253662109375 0.06149999999999989 Q 5.8980036621093745 0.034499999999999975 5.859003662109375 0.034499999999999975 Q 5.854503662109375 0.034499999999999975 5.854503662109375 0.025499999999999967 Q 5.854503662109375 0.01649999999999996 5.859003662109375 0.01649999999999996 L 5.928003662109375 0.017999999999999905 Q 5.982003662109375 0.020999999999999908 6.027003662109375 0.020999999999999908 Q 6.057003662109375 0.020999999999999908 6.096003662109375 0.017999999999999905 L 6.160503662109375 0.01649999999999996 Q 6.163503662109375 0.01649999999999996 6.163503662109375 0.025499999999999967 M 7.239019775390625 0.025499999999999967 Q 7.239019775390625 0.034499999999999975 7.236019775390625 0.034499999999999975 Q 7.176019775390625 0.034499999999999975 7.141519775390625 0.08174999999999999 Q 7.107019775390625 0.1289999999999999 7.107019775390625 0.2084999999999999 L 7.107019775390625 0.9764999999999999 Q 7.107019775390625 0.981 7.100269775390625 0.9824999999999999 Q 7.093519775390625 0.984 7.090519775390625 0.981 L 6.387019775390625 0.17999999999999994 L 6.387019775390625 0.7635 Q 6.387019775390625 0.843 6.420019775390625 0.8895 Q 6.453019775390625 0.9359999999999999 6.511519775390625 0.9359999999999999 Q 6.5145197753906245 0.9359999999999999 6.5145197753906245 0.945 Q 6.5145197753906245 0.954 6.511519775390625 0.954 Q 6.469519775390625 0.954 6.447019775390625 0.9525 L 6.366019775390625 0.951 L 6.273019775390625 0.9525 Q 6.247519775390625 0.954 6.199519775390625 0.954 Q 6.195019775390625 0.954 6.195019775390625 0.945 Q 6.195019775390625 0.9359999999999999 6.199519775390625 0.9359999999999999 Q 6.265519775390625 0.9359999999999999 6.303769775390625 0.8895 Q 6.342019775390625 0.843 6.342019775390625 0.7635 L 6.342019775390625 0.1289999999999999 Q 6.292519775390625 0.07499999999999996 6.257269775390625 0.054749999999999965 Q 6.222019775390625 0.034499999999999975 6.184519775390625 0.034499999999999975 Q 6.181519775390625 0.034499999999999975 6.181519775390625 0.025499999999999967 Q 6.181519775390625 0.01649999999999996 6.184519775390625 0.01649999999999996 L 6.247519775390625 0.017999999999999905 Q 6.267019775390625 0.019499999999999962 6.304519775390625 0.019499999999999962 L 6.418519775390625 0.017999999999999905 Q 6.439519775390625 0.01649999999999996 6.469519775390625 0.01649999999999996 Q 6.481519775390625 0.01649999999999996 6.487519775390625 0.022499999999999964 Q 6.493519775390625 0.02849999999999997 6.508519775390625 0.04799999999999993 Q 6.534019775390625 0.0824999999999999 6.544519775390625 0.09449999999999992 L 7.063519775390625 0.693 L 7.063519775390625 0.2084999999999999 Q 7.063519775390625 0.12749999999999995 7.030519775390625 0.08099999999999996 Q 6.997519775390625 0.034499999999999975 6.939019775390625 0.034499999999999975 Q 6.9360197753906245 0.034499999999999975 6.9360197753906245 0.025499999999999967 Q 6.9360197753906245 0.01649999999999996 6.939019775390625 0.01649999999999996 L 7.003519775390625 0.017999999999999905 Q 7.051519775390625 0.020999999999999908 7.084519775390625 0.020999999999999908 Q 7.114519775390625 0.020999999999999908 7.168519775390625 0.017999999999999905 L 7.236019775390625 0.01649999999999996 Q 7.239019775390625 0.01649999999999996 7.239019775390625 0.025499999999999967 M 8.374510986328126 0.011249999999999982 Q 8.446510986328125 0.022499999999999964 8.487010986328125 0.04049999999999998 Q 8.500510986328125 0.04499999999999993 8.504260986328125 0.05174999999999996 Q 8.508010986328125 0.058499999999999885 8.511010986328126 0.07499999999999996 L 8.529010986328124 0.2835 Q 8.529010986328124 0.2879999999999999 8.521510986328124 0.2895 Q 8.514010986328126 0.2909999999999999 8.512510986328126 0.2849999999999999 Q 8.461510986328125 0.16649999999999998 8.376010986328126 0.10199999999999998 Q 8.290510986328124 0.03749999999999998 8.178010986328125 0.03749999999999998 Q 8.029510986328125 0.03749999999999998 7.948510986328125 0.1469999999999999 Q 7.867510986328125 0.25649999999999995 7.867510986328125 0.44099999999999995 Q 7.867510986328125 0.579 7.911760986328125 0.693 Q 7.956010986328125 0.8069999999999999 8.036260986328125 0.8737499999999999 Q 8.116510986328125 0.9405 8.218510986328125 0.9405 Q 8.314510986328125 0.9405 8.390260986328125 0.8767499999999999 Q 8.466010986328126 0.813 8.526010986328124 0.6824999999999999 Q 8.527510986328124 0.6764999999999999 8.535760986328125 0.6779999999999999 Q 8.544010986328125 0.6795 8.544010986328125 0.6839999999999999 L 8.521510986328124 0.8879999999999999 Q 8.518510986328124 0.9059999999999999 8.514760986328126 0.91125 Q 8.511010986328126 0.9165 8.497510986328125 0.9225 Q 8.364010986328125 0.972 8.223010986328125 0.972 Q 8.040010986328125 0.972 7.917010986328125 0.89925 Q 7.794010986328125 0.8265 7.736260986328125 0.71475 Q 7.678510986328125 0.603 7.678510986328125 0.48149999999999993 Q 7.678510986328125 0.33899999999999997 7.755760986328125 0.22949999999999993 Q 7.833010986328125 0.12 7.961260986328125 0.05999999999999994 Q 8.089510986328126 -1.1102230246251565e-16 8.236510986328126 -1.1102230246251565e-16 Q 8.302510986328125 -1.1102230246251565e-16 8.374510986328126 0.011249999999999982 M 9.6915205078125 0.945 Q 9.6915205078125 0.954 9.6840205078125 0.954 Q 9.6540205078125 0.954 9.5910205078125 0.951 Q 9.5250205078125 0.948 9.4965205078125 0.948 Q 9.4590205078125 0.948 9.4050205078125 0.951 Q 9.3540205078125 0.954 9.3240205078125 0.954 Q 9.3180205078125 0.954 9.3180205078125 0.945 Q 9.3180205078125 0.9359999999999999 9.3240205078125 0.9359999999999999 Q 9.3630205078125 0.9359999999999999 9.3802705078125 0.92775 Q 9.3975205078125 0.9195 9.3975205078125 0.8985 Q 9.3975205078125 0.873 9.3675205078125 0.813 L 9.2115205078125 0.5055 L 8.9445205078125 0.5055 L 8.8380205078125 0.741 Q 8.8185205078125 0.7845 8.8185205078125 0.822 Q 8.8185205078125 0.876 8.8567705078125 0.9059999999999999 Q 8.8950205078125 0.9359999999999999 8.9595205078125 0.9359999999999999 Q 8.9670205078125 0.9359999999999999 8.9670205078125 0.945 Q 8.9670205078125 0.954 8.9595205078125 0.954 Q 8.9325205078125 0.954 8.8815205078125 0.951 Q 8.8245205078125 0.948 8.7825205078125 0.948 Q 8.7420205078125 0.948 8.6850205078125 0.951 Q 8.6340205078125 0.954 8.6025205078125 0.954 Q 8.5965205078125 0.954 8.5965205078125 0.945 Q 8.5965205078125 0.9359999999999999 8.6025205078125 0.9359999999999999 Q 8.6445205078125 0.9359999999999999 8.6730205078125 0.91875 Q 8.7015205078125 0.9015 8.7300205078125 0.85725 Q 8.7585205078125 0.813 8.7975205078125 0.726 L 9.1230205078125 0.010499999999999954 Q 9.1260205078125 0.005999999999999894 9.1365205078125 0.005999999999999894 Q 9.1485205078125 0.005999999999999894 9.1500205078125 0.010499999999999954 L 9.5250205078125 0.7484999999999999 Q 9.5775205078125 0.855 9.6120205078125 0.8955 Q 9.6465205078125 0.9359999999999999 9.6840205078125 0.9359999999999999 Q 9.6915205078125 0.9359999999999999 9.6915205078125 0.945 M 8.9640205078125 0.46349999999999997 L 9.1905205078125 0.46349999999999997 L 9.0705205078125 0.22649999999999992 L 8.9640205078125 0.46349999999999997 M 10.747525634765625 0.945 Q 10.747525634765625 0.954 10.744525634765624 0.954 L 10.477525634765625 0.954 Q 10.444525634765625 0.954 10.354525634765626 0.8302499999999999 Q 10.264525634765626 0.7064999999999999 10.137025634765624 0.48449999999999993 Q 10.125025634765626 0.48599999999999993 10.102525634765625 0.48599999999999993 Q 10.044025634765624 0.48599999999999993 10.020025634765625 0.48449999999999993 L 10.020025634765625 0.8325 Q 10.020025634765625 0.879 10.027525634765626 0.8999999999999999 Q 10.035025634765624 0.9209999999999999 10.056775634765625 0.9285 Q 10.078525634765626 0.9359999999999999 10.126525634765626 0.9359999999999999 Q 10.129525634765624 0.9359999999999999 10.129525634765624 0.945 Q 10.129525634765624 0.954 10.126525634765626 0.954 Q 10.077025634765626 0.954 10.048525634765625 0.9525 L 9.934525634765626 0.951 L 9.825025634765625 0.9525 Q 9.795025634765626 0.954 9.744025634765626 0.954 Q 9.739525634765625 0.954 9.739525634765625 0.945 Q 9.739525634765625 0.9359999999999999 9.744025634765626 0.9359999999999999 Q 9.792025634765626 0.9359999999999999 9.813775634765625 0.9285 Q 9.835525634765625 0.9209999999999999 9.843775634765626 0.89925 Q 9.852025634765624 0.8775 9.852025634765624 0.8325 L 9.852025634765624 0.1379999999999999 Q 9.852025634765624 0.09299999999999997 9.844525634765626 0.07199999999999995 Q 9.837025634765626 0.050999999999999934 9.814525634765625 0.042749999999999955 Q 9.792025634765626 0.034499999999999975 9.745525634765626 0.034499999999999975 Q 9.742525634765625 0.034499999999999975 9.742525634765625 0.025499999999999967 Q 9.742525634765625 0.01649999999999996 9.745525634765626 0.01649999999999996 L 9.825025634765625 0.017999999999999905 Q 9.894025634765624 0.020999999999999908 9.934525634765626 0.020999999999999908 Q 9.978025634765626 0.020999999999999908 10.030525634765626 0.01649999999999996 Q 10.047025634765625 0.014999999999999902 10.073275634765626 0.013499999999999956 Q 10.099525634765625 0.0119999999999999 10.135525634765624 0.0119999999999999 Q 10.273525634765624 0.0119999999999999 10.349275634765625 0.062249999999999917 Q 10.425025634765625 0.11249999999999993 10.425025634765625 0.2024999999999999 Q 10.425025634765625 0.27149999999999996 10.383025634765625 0.3344999999999999 Q 10.341025634765625 0.39749999999999996 10.273525634765624 0.4365 Q 10.393525634765625 0.6255 10.475275634765625 0.732 Q 10.557025634765624 0.8384999999999999 10.620775634765625 0.88725 Q 10.684525634765626 0.9359999999999999 10.744525634765624 0.9359999999999999 Q 10.747525634765625 0.9359999999999999 10.747525634765625 0.945 M 10.107025634765625 0.44699999999999995 Q 10.161025634765625 0.44699999999999995 10.192525634765625 0.4305 Q 10.224025634765624 0.4139999999999999 10.238275634765625 0.37349999999999994 Q 10.252525634765625 0.33299999999999996 10.252525634765625 0.25949999999999995 Q 10.252525634765625 0.13649999999999995 10.216525634765626 0.08999999999999997 Q 10.180525634765624 0.04349999999999998 10.113025634765625 0.04349999999999998 Q 10.062025634765625 0.04349999999999998 10.041025634765624 0.06599999999999995 Q 10.020025634765625 0.08849999999999991 10.020025634765625 0.1409999999999999 L 10.020025634765625 0.44099999999999995 Q 10.056025634765625 0.44699999999999995 10.107025634765625 0.44699999999999995 M 11.479522705078125 0.7124999999999999 Q 11.484022705078125 0.7124999999999999 11.487772705078125 0.71475 Q 11.491522705078125 0.717 11.491522705078125 0.7184999999999999 Q 11.476522705078125 0.8354999999999999 11.476522705078125 0.9315 Q 11.476522705078125 0.9435 11.472022705078125 0.94875 Q 11.467522705078125 0.954 11.454022705078126 0.954 L 10.791022705078126 0.954 Q 10.786522705078125 0.954 10.786522705078125 0.945 Q 10.786522705078125 0.9359999999999999 10.791022705078126 0.9359999999999999 Q 10.839022705078126 0.9359999999999999 10.860772705078125 0.9285 Q 10.882522705078125 0.9209999999999999 10.890022705078126 0.89925 Q 10.897522705078124 0.8775 10.897522705078124 0.8325 L 10.897522705078124 0.1379999999999999 Q 10.897522705078124 0.09299999999999997 10.890022705078126 0.07199999999999995 Q 10.882522705078125 0.050999999999999934 10.860022705078125 0.042749999999999955 Q 10.837522705078126 0.034499999999999975 10.791022705078126 0.034499999999999975 Q 10.786522705078125 0.034499999999999975 10.786522705078125 0.025499999999999967 Q 10.786522705078125 0.01649999999999996 10.791022705078126 0.01649999999999996 L 11.427022705078125 0.01649999999999996 Q 11.442022705078125 0.01649999999999996 11.442022705078125 0.029999999999999916 L 11.445022705078125 0.22949999999999993 Q 11.445022705078125 0.23249999999999993 11.436772705078125 0.23399999999999999 Q 11.428522705078125 0.23549999999999993 11.427022705078125 0.23099999999999998 Q 11.403022705078126 0.1439999999999999 11.346022705078125 0.10199999999999998 Q 11.289022705078125 0.05999999999999994 11.196022705078125 0.05999999999999994 L 11.151022705078125 0.05999999999999994 Q 11.106022705078125 0.05999999999999994 11.085022705078124 0.0794999999999999 Q 11.064022705078125 0.09899999999999998 11.064022705078125 0.13949999999999996 L 11.064022705078125 0.4454999999999999 L 11.188522705078125 0.4454999999999999 Q 11.275522705078124 0.4454999999999999 11.322022705078124 0.4155 Q 11.368522705078124 0.38549999999999995 11.368522705078124 0.3314999999999999 Q 11.368522705078124 0.32699999999999996 11.376772705078125 0.32699999999999996 Q 11.385022705078125 0.32699999999999996 11.385022705078125 0.3314999999999999 L 11.383522705078125 0.46649999999999997 L 11.385022705078125 0.5385 Q 11.388022705078125 0.5894999999999999 11.388022705078125 0.6194999999999999 Q 11.388022705078125 0.6224999999999999 11.379022705078125 0.6224999999999999 Q 11.370022705078124 0.6224999999999999 11.370022705078124 0.6194999999999999 Q 11.370022705078124 0.5579999999999999 11.322772705078124 0.5227499999999999 Q 11.275522705078124 0.48749999999999993 11.187022705078125 0.48749999999999993 L 11.064022705078125 0.48749999999999993 L 11.064022705078125 0.8265 Q 11.064022705078125 0.87 11.080522705078126 0.891 Q 11.097022705078125 0.9119999999999999 11.133022705078124 0.9119999999999999 L 11.182522705078124 0.9119999999999999 Q 11.299522705078125 0.9119999999999999 11.370022705078124 0.864 Q 11.440522705078125 0.816 11.473522705078125 0.7154999999999999 Q 11.473522705078125 0.7124999999999999 11.479522705078125 0.7124999999999999" fill="#000000" fill-rule="nonzero"></path></g><g><path d=" M 0.52725 1.7976375000000002 Q 0.52725 1.8021375000000002 0.52425 1.8021375000000002 Q 0.51 1.8021375000000002 0.48 1.8006375000000001 Q 0.45 1.7991375000000003 0.4365 1.7991375000000003 Q 0.42 1.7991375000000003 0.3945 1.8006375000000001 Q 0.3705 1.8021375000000002 0.35775 1.8021375000000002 Q 0.35475 1.8021375000000002 0.35475 1.7976375000000002 Q 0.35475 1.7931375000000003 0.35775 1.7931375000000003 Q 0.3855 1.7931375000000003 0.39825 1.7878875 Q 0.41100000000000003 1.7826375 0.41100000000000003 1.7698875000000003 Q 0.41100000000000003 1.7593875 0.40125 1.7376375000000002 L 0.315 1.5538875 L 0.17325000000000002 1.5538875 L 0.10875 1.7068875000000001 Q 0.09825 1.7323875000000002 0.09825 1.7488875000000002 Q 0.09825 1.7931375000000003 0.17175 1.7931375000000003 Q 0.17550000000000002 1.7931375000000003 0.17550000000000002 1.7976375000000002 Q 0.17550000000000002 1.8021375000000002 0.17175 1.8021375000000002 Q 0.15825 1.8021375000000002 0.13275 1.8006375000000001 Q 0.10425 1.7991375000000003 0.08325 1.7991375000000003 Q 0.06375 1.7991375000000003 0.03825 1.8006375000000001 Q 0.01575 1.8021375000000002 0.00075 1.8021375000000002 Q -0.003 1.8021375000000002 -0.003 1.7976375000000002 Q -0.003 1.7931375000000003 0.00075 1.7931375000000003 Q 0.021750000000000002 1.7931375000000003 0.036375 1.7852625000000002 Q 0.051000000000000004 1.7773875000000001 0.064125 1.7575125000000003 Q 0.07725 1.7376375000000002 0.093 1.7001375 L 0.25125000000000003 1.3266375000000001 Q 0.25275000000000003 1.3243875000000003 0.2565 1.3243875000000003 Q 0.26025 1.3243875000000003 0.261 1.3266375000000001 L 0.438 1.6993875000000003 Q 0.4635 1.7548875000000002 0.4815 1.7740125000000002 Q 0.4995 1.7931375000000003 0.52425 1.7931375000000003 Q 0.52725 1.7931375000000003 0.52725 1.7976375000000002 M 0.18 1.5381375000000002 L 0.3075 1.5381375000000002 L 0.24 1.3956375 L 0.18 1.5381375000000002 M 1.058644775390625 1.3378875000000001 Q 1.058644775390625 1.3423875 1.056394775390625 1.3423875 Q 1.024894775390625 1.3423875 1.010644775390625 1.3596375000000003 Q 0.996394775390625 1.3768875 0.996394775390625 1.4158875000000002 L 0.996394775390625 1.8111375 Q 0.996394775390625 1.8126375000000001 0.9926447753906249 1.8133875000000002 Q 0.988894775390625 1.8141375000000002 0.9873947753906249 1.8126375000000001 L 0.642394775390625 1.3948875000000003 L 0.6356447753906249 1.3873875000000002 L 0.6356447753906249 1.7203875000000002 Q 0.6356447753906249 1.7593875 0.649519775390625 1.7762625 Q 0.663394775390625 1.7931375000000003 0.6941447753906249 1.7931375000000003 Q 0.696394775390625 1.7931375000000003 0.696394775390625 1.7976375000000002 Q 0.696394775390625 1.8021375000000002 0.6941447753906249 1.8021375000000002 Q 0.675394775390625 1.8021375000000002 0.6656447753906249 1.8013875000000001 L 0.628144775390625 1.8006375000000001 L 0.589894775390625 1.8013875000000001 Q 0.579394775390625 1.8021375000000002 0.5591447753906249 1.8021375000000002 Q 0.557644775390625 1.8021375000000002 0.557644775390625 1.7976375000000002 Q 0.557644775390625 1.7931375000000003 0.5591447753906249 1.7931375000000003 Q 0.591394775390625 1.7931375000000003 0.604894775390625 1.7762625 Q 0.6183947753906249 1.7593875 0.6183947753906249 1.7203875000000002 L 0.6183947753906249 1.3693875000000002 Q 0.5891447753906249 1.3423875 0.5591447753906249 1.3423875 Q 0.5568947753906249 1.3423875 0.5568947753906249 1.3378875000000001 Q 0.5568947753906249 1.3333875000000002 0.5591447753906249 1.3333875000000002 L 0.586894775390625 1.3341375000000002 Q 0.595894775390625 1.3348875000000002 0.611644775390625 1.3348875000000002 Q 0.628144775390625 1.3348875000000002 0.6386447753906249 1.3341375000000002 Q 0.649144775390625 1.3333875000000002 0.655144775390625 1.3333875000000002 Q 0.661144775390625 1.3333875000000002 0.663769775390625 1.3360125000000003 Q 0.666394775390625 1.3386375000000001 0.672394775390625 1.3476375000000003 Q 0.681394775390625 1.3611375000000001 0.690394775390625 1.3723875 L 0.9791447753906249 1.7271375000000002 L 0.9791447753906249 1.4158875000000002 Q 0.9791447753906249 1.3768875 0.966019775390625 1.3596375000000003 Q 0.952894775390625 1.3423875 0.9221447753906249 1.3423875 Q 0.920644775390625 1.3423875 0.920644775390625 1.3378875000000001 Q 0.920644775390625 1.3333875000000002 0.9221447753906249 1.3333875000000002 L 0.9513947753906249 1.3341375000000002 Q 0.973894775390625 1.3356375000000003 0.988144775390625 1.3356375000000003 Q 1.001644775390625 1.3356375000000003 1.025644775390625 1.3341375000000002 L 1.056394775390625 1.3333875000000002 Q 1.058644775390625 1.3333875000000002 1.058644775390625 1.3378875000000001 M 1.2525120849609375 1.8028875000000002 Q 1.2420120849609375 1.8021375000000002 1.2258870849609373 1.8013875000000001 Q 1.2097620849609374 1.8006375000000001 1.1902620849609373 1.8006375000000001 L 1.1392620849609374 1.8013875000000001 Q 1.1257620849609373 1.8021375000000002 1.1017620849609375 1.8021375000000002 Q 1.1002620849609375 1.8021375000000002 1.1002620849609375 1.7976375000000002 Q 1.1002620849609375 1.7931375000000003 1.1017620849609375 1.7931375000000003 Q 1.1302620849609375 1.7931375000000003 1.1433870849609373 1.7893875000000001 Q 1.1565120849609374 1.7856375000000002 1.1613870849609373 1.7747625000000002 Q 1.1662620849609375 1.7638875000000003 1.1662620849609375 1.7413875 L 1.1662620849609375 1.3941375000000003 Q 1.1662620849609375 1.3716375000000003 1.1617620849609374 1.3611375000000001 Q 1.1572620849609374 1.3506375000000002 1.1441370849609374 1.3465125000000002 Q 1.1310120849609375 1.3423875 1.1025120849609373 1.3423875 Q 1.1010120849609375 1.3423875 1.1010120849609375 1.3378875000000001 Q 1.1010120849609375 1.3333875000000002 1.1025120849609373 1.3333875000000002 L 1.1400120849609374 1.3341375000000002 Q 1.1715120849609375 1.3356375000000003 1.1902620849609373 1.3356375000000003 Q 1.2187620849609375 1.3356375000000003 1.2465120849609375 1.3333875000000002 Q 1.2795120849609374 1.3318875000000001 1.2922620849609374 1.3318875000000001 Q 1.3702620849609375 1.3318875000000001 1.4302620849609373 1.3618875000000001 Q 1.4902620849609374 1.3918875000000002 1.5236370849609373 1.4436375000000001 Q 1.5570120849609375 1.4953875 1.5570120849609375 1.5598875 Q 1.5570120849609375 1.6326375000000002 1.5228870849609375 1.6885125 Q 1.4887620849609373 1.7443875000000002 1.4302620849609373 1.7747625000000002 Q 1.3717620849609373 1.8051375 1.3027620849609374 1.8051375 Q 1.2810120849609374 1.8051375 1.2525120849609375 1.8028875000000002 M 1.4017620849609373 1.7687625000000002 Q 1.4482620849609376 1.7436375000000002 1.4741370849609374 1.6945125 Q 1.5000120849609373 1.6453875000000002 1.5000120849609373 1.5763875 Q 1.5000120849609373 1.5111375000000002 1.4752620849609375 1.4578875000000002 Q 1.4505120849609374 1.4046375000000002 1.4047620849609375 1.3738875000000002 Q 1.3590120849609375 1.3431375 1.2990120849609375 1.3431375 Q 1.2667620849609373 1.3431375 1.2491370849609373 1.3468875000000002 Q 1.2315120849609373 1.3506375000000002 1.2232620849609375 1.3618875000000001 Q 1.2150120849609374 1.3731375000000001 1.2150120849609374 1.3956375 L 1.2150120849609374 1.7331375000000002 Q 1.2150120849609374 1.7556375000000002 1.2213870849609374 1.7683875000000002 Q 1.2277620849609374 1.7811375000000003 1.2453870849609374 1.7875125 Q 1.2630120849609374 1.7938875 1.2952620849609375 1.7938875 Q 1.3552620849609374 1.7938875 1.4017620849609373 1.7687625000000002 M 1.8960029296874998 1.4721375 Q 1.9102529296875 1.4938875 1.9305029296874998 1.5085125000000001 Q 1.9507529296875 1.5231375000000003 1.9875029296874998 1.5456375000000002 Q 2.0265029296874997 1.5688875000000002 2.0482529296875 1.5846375000000001 Q 2.0700029296875 1.6003875 2.0853779296874997 1.6247625 Q 2.1007529296875 1.6491375000000001 2.1007529296875 1.6828875 Q 2.1007529296875 1.7188875000000001 2.0827529296875 1.7481375000000001 Q 2.0647529296875 1.7773875000000001 2.0298779296875 1.7942625 Q 1.9950029296874998 1.8111375 1.9462529296874997 1.8111375 Q 1.8885029296874998 1.8111375 1.8405029296874997 1.7848875000000002 Q 1.8367529296874998 1.7826375 1.8356279296874998 1.7796375000000002 Q 1.8345029296875 1.7766375 1.8337529296875 1.7706375 L 1.8240029296874998 1.6686375000000002 Q 1.8232529296874997 1.6656375 1.8273779296875 1.6648875 Q 1.8315029296874998 1.6641375000000003 1.8322529296874999 1.6671375000000002 Q 1.8442529296874999 1.7211375000000002 1.8768779296874998 1.7601375000000001 Q 1.9095029296875 1.7991375000000003 1.9635029296875 1.7991375000000003 Q 2.0010029296875 1.7991375000000003 2.0268779296874997 1.7785125000000002 Q 2.0527529296875 1.7578875000000003 2.0527529296875 1.7128875000000001 Q 2.0527529296875 1.6791375000000002 2.0377529296874997 1.6543875000000001 Q 2.0227529296875 1.6296375 2.0013779296875 1.6135125000000001 Q 1.9800029296875 1.5973875000000002 1.9432529296874999 1.5756375000000002 Q 1.9072529296874998 1.5538875 1.8866279296875 1.5381375000000002 Q 1.8660029296874998 1.5223875000000002 1.8517529296875 1.4983875000000002 Q 1.8375029296874998 1.4743875000000002 1.8375029296874998 1.4421375000000003 Q 1.8375029296874998 1.4046375000000002 1.8573779296875 1.3780125 Q 1.8772529296874998 1.3513875000000002 1.9091279296875 1.3382625000000001 Q 1.9410029296874998 1.3251375 1.9770029296874998 1.3251375 Q 2.0212529296875 1.3251375 2.0647529296875 1.3431375 Q 2.0760029296874998 1.3468875000000002 2.0760029296874998 1.3558875000000001 L 2.0812529296875 1.4421375000000003 Q 2.0812529296875 1.4451375000000002 2.0775029296875 1.4451375000000002 Q 2.0737529296874997 1.4451375000000002 2.0730029296874997 1.4421375000000003 Q 2.0670029296875 1.4031375000000001 2.0407529296874998 1.3697625000000002 Q 2.0145029296874997 1.3363875000000003 1.9650029296874998 1.3363875000000003 Q 1.9230029296874998 1.3363875000000003 1.9023779296874999 1.3607625 Q 1.8817529296874997 1.3851375000000001 1.8817529296874997 1.4211375000000002 Q 1.8817529296874997 1.4503875000000002 1.8960029296874998 1.4721375 M 2.5023988037109373 1.6888875 Q 2.5046488037109373 1.6888875 2.5065238037109374 1.6896375000000001 Q 2.5083988037109375 1.6903875000000002 2.5083988037109375 1.6918875000000002 Q 2.5016488037109372 1.7391375000000002 2.5016488037109372 1.7908875000000002 Q 2.5016488037109372 1.7968875000000002 2.4990238037109376 1.7995125 Q 2.4963988037109375 1.8021375000000002 2.4896488037109377 1.8021375000000002 L 2.1753988037109373 1.8021375000000002 Q 2.1738988037109372 1.8021375000000002 2.1738988037109372 1.7976375000000002 Q 2.1738988037109372 1.7931375000000003 2.1753988037109373 1.7931375000000003 Q 2.2038988037109375 1.7931375000000003 2.2170238037109375 1.7893875000000001 Q 2.2301488037109376 1.7856375000000002 2.2350238037109373 1.7747625000000002 Q 2.2398988037109375 1.7638875000000003 2.2398988037109375 1.7413875 L 2.2398988037109375 1.3941375000000003 Q 2.2398988037109375 1.3716375000000003 2.2350238037109373 1.3611375000000001 Q 2.2301488037109376 1.3506375000000002 2.2170238037109375 1.3465125000000002 Q 2.2038988037109375 1.3423875 2.1753988037109373 1.3423875 Q 2.1738988037109372 1.3423875 2.1738988037109372 1.3378875000000001 Q 2.1738988037109372 1.3333875000000002 2.1753988037109373 1.3333875000000002 L 2.476898803710937 1.3333875000000002 Q 2.4836488037109374 1.3333875000000002 2.4836488037109374 1.3401375000000002 L 2.4851488037109375 1.4323875000000001 Q 2.4851488037109375 1.4346375000000002 2.4813988037109374 1.4350125 Q 2.477648803710937 1.4353875 2.476898803710937 1.4331375000000002 Q 2.4746488037109375 1.3933875000000002 2.4528988037109376 1.3712625000000003 Q 2.4311488037109372 1.3491375 2.3951488037109376 1.3491375 L 2.3493988037109372 1.3491375 Q 2.3231488037109376 1.3491375 2.3107738037109375 1.3532625 Q 2.2983988037109375 1.3573875000000002 2.2935238037109373 1.3675125000000001 Q 2.2886488037109376 1.3776375 2.2886488037109376 1.3978875000000002 L 2.2886488037109376 1.5501375000000002 L 2.3801488037109375 1.5501375000000002 Q 2.4161488037109375 1.5501375000000002 2.4315238037109372 1.5381375000000002 Q 2.4468988037109374 1.5261375000000001 2.4468988037109374 1.4976375000000002 Q 2.4468988037109374 1.4961375000000001 2.4513988037109375 1.4961375000000001 Q 2.4558988037109373 1.4961375000000001 2.4558988037109373 1.4976375000000002 L 2.4551488037109372 1.5583875000000003 Q 2.4551488037109372 1.5801375000000002 2.4558988037109373 1.5913875000000002 L 2.4566488037109373 1.6273875000000002 Q 2.4566488037109373 1.6288875000000003 2.4521488037109376 1.6288875000000003 Q 2.4476488037109374 1.6288875000000003 2.4476488037109374 1.6273875000000002 Q 2.4476488037109374 1.5943875 2.4315238037109372 1.5801375000000002 Q 2.4153988037109375 1.5658875 2.3778988037109374 1.5658875 L 2.2886488037109376 1.5658875 L 2.2886488037109376 1.7383875000000002 Q 2.2886488037109376 1.7593875 2.2931488037109373 1.7691375000000003 Q 2.2976488037109375 1.7788875000000002 2.3096488037109375 1.7826375 Q 2.3216488037109375 1.7863875000000002 2.3471488037109376 1.7863875000000002 L 2.407148803710937 1.7863875000000002 Q 2.4431488037109372 1.7863875000000002 2.4671488037109373 1.7608875000000002 Q 2.4911488037109373 1.7353875 2.4993988037109376 1.6903875000000002 Q 2.4993988037109376 1.6888875 2.5023988037109373 1.6888875 M 3.0615142822265624 1.7976375000000002 Q 3.0615142822265624 1.8021375000000002 3.0600142822265624 1.8021375000000002 L 2.9632642822265627 1.8021375000000002 Q 2.9445142822265624 1.8021375000000002 2.8931392822265627 1.7380125000000002 Q 2.8417642822265625 1.6738875000000002 2.7682642822265624 1.5591375000000003 Q 2.7502642822265626 1.5643875 2.7277642822265626 1.5643875 Q 2.7135142822265625 1.5643875 2.6940142822265623 1.5628875000000002 L 2.6940142822265623 1.7413875 Q 2.6940142822265623 1.7646375 2.6985142822265624 1.7751375000000003 Q 2.7030142822265626 1.7856375000000002 2.7161392822265626 1.7893875000000001 Q 2.7292642822265627 1.7931375000000003 2.7577642822265624 1.7931375000000003 Q 2.7600142822265625 1.7931375000000003 2.7600142822265625 1.7976375000000002 Q 2.7600142822265625 1.8021375000000002 2.7577642822265624 1.8021375000000002 Q 2.7345142822265625 1.8021375000000002 2.7210142822265624 1.8013875000000001 L 2.6692642822265626 1.8006375000000001 L 2.6182642822265625 1.8013875000000001 Q 2.6047642822265624 1.8021375000000002 2.5800142822265624 1.8021375000000002 Q 2.5785142822265623 1.8021375000000002 2.5785142822265623 1.7976375000000002 Q 2.5785142822265623 1.7931375000000003 2.5800142822265624 1.7931375000000003 Q 2.6085142822265626 1.7931375000000003 2.6220142822265626 1.7890125000000001 Q 2.6355142822265627 1.7848875000000002 2.6407642822265625 1.7743875000000002 Q 2.6460142822265627 1.7638875000000003 2.6460142822265627 1.7413875 L 2.6460142822265627 1.3941375000000003 Q 2.6460142822265627 1.3716375000000003 2.6411392822265625 1.3611375000000001 Q 2.6362642822265623 1.3506375000000002 2.6231392822265627 1.3465125000000002 Q 2.6100142822265626 1.3423875 2.5815142822265624 1.3423875 Q 2.5792642822265623 1.3423875 2.5792642822265623 1.3378875000000001 Q 2.5792642822265623 1.3333875000000002 2.5815142822265624 1.3333875000000002 L 2.6182642822265625 1.3341375000000002 Q 2.6497642822265624 1.3356375000000003 2.6692642822265626 1.3356375000000003 Q 2.6827642822265627 1.3356375000000003 2.6947642822265623 1.3348875000000002 Q 2.7067642822265623 1.3341375000000002 2.7157642822265626 1.3333875000000002 Q 2.7397642822265627 1.3311375 2.7592642822265625 1.3311375 Q 2.8200142822265626 1.3311375 2.8530142822265625 1.3558875000000001 Q 2.8860142822265624 1.3806375000000002 2.8860142822265624 1.4248875 Q 2.8860142822265624 1.4608875000000001 2.8650142822265625 1.4927625000000002 Q 2.8440142822265626 1.5246375 2.8095142822265626 1.5433875000000001 Q 2.8732642822265624 1.6386375000000002 2.9167642822265627 1.6922625000000002 Q 2.9602642822265626 1.7458875000000003 2.9940142822265625 1.7695125000000003 Q 3.0277642822265625 1.7931375000000003 3.0600142822265624 1.7931375000000003 Q 3.0615142822265624 1.7931375000000003 3.0615142822265624 1.7976375000000002 M 2.7382642822265626 1.5471375000000003 Q 2.7900142822265623 1.5471375000000003 2.8125142822265623 1.5250125 Q 2.8350142822265623 1.5028875000000002 2.8350142822265623 1.4511375000000002 Q 2.8350142822265623 1.3423875 2.7435142822265624 1.3423875 Q 2.7232642822265625 1.3423875 2.7131392822265625 1.3457625000000002 Q 2.7030142822265626 1.3491375 2.6985142822265624 1.3600125000000003 Q 2.6940142822265623 1.3708875000000003 2.6940142822265623 1.3956375 L 2.6940142822265623 1.5441375000000002 Q 2.7127642822265625 1.5471375000000003 2.7382642822265626 1.5471375000000003 M 3.505864013671875 1.3378875000000001 Q 3.505864013671875 1.3423875 3.503614013671875 1.3423875 Q 3.478114013671875 1.3423875 3.459364013671875 1.3558875000000001 Q 3.4406140136718752 1.3693875000000002 3.427864013671875 1.4016375 L 3.268114013671875 1.8013875000000001 Q 3.267364013671875 1.8043875000000003 3.259864013671875 1.8043875000000003 Q 3.2538640136718753 1.8043875000000003 3.251614013671875 1.8013875000000001 L 3.064864013671875 1.3956375 Q 3.052114013671875 1.3663875 3.037864013671875 1.3543875 Q 3.023614013671875 1.3423875 3.001114013671875 1.3423875 Q 2.998864013671875 1.3423875 2.998864013671875 1.3378875000000001 Q 2.998864013671875 1.3333875000000002 3.001114013671875 1.3333875000000002 L 3.029614013671875 1.3341375000000002 Q 3.050614013671875 1.3356375000000003 3.063364013671875 1.3356375000000003 Q 3.093364013671875 1.3356375000000003 3.127864013671875 1.3341375000000002 L 3.158614013671875 1.3333875000000002 Q 3.160864013671875 1.3333875000000002 3.160864013671875 1.3378875000000001 Q 3.160864013671875 1.3423875 3.158614013671875 1.3423875 Q 3.1353640136718752 1.3423875 3.1237390136718752 1.3483875000000003 Q 3.1121140136718752 1.3543875 3.1121140136718752 1.3686375000000002 Q 3.1121140136718752 1.3776375 3.118864013671875 1.3926375000000002 L 3.275614013671875 1.7361375000000001 L 3.410614013671875 1.3978875000000002 Q 3.4166140136718752 1.3821375000000002 3.4166140136718752 1.3731375000000001 Q 3.4166140136718752 1.3573875000000002 3.402364013671875 1.3498875000000001 Q 3.388114013671875 1.3423875 3.3581140136718752 1.3423875 Q 3.355864013671875 1.3423875 3.355864013671875 1.3378875000000001 Q 3.355864013671875 1.3333875000000002 3.3581140136718752 1.3333875000000002 L 3.390364013671875 1.3341375000000002 Q 3.415864013671875 1.3356375000000003 3.436864013671875 1.3356375000000003 Q 3.452614013671875 1.3356375000000003 3.472114013671875 1.3341375000000002 L 3.503614013671875 1.3333875000000002 Q 3.505864013671875 1.3333875000000002 3.505864013671875 1.3378875000000001 M 3.657000732421875 1.7747625000000002 Q 3.6615007324218753 1.7856375000000002 3.674625732421875 1.7893875000000001 Q 3.687750732421875 1.7931375000000003 3.716250732421875 1.7931375000000003 Q 3.7185007324218753 1.7931375000000003 3.7185007324218753 1.7976375000000002 Q 3.7185007324218753 1.8021375000000002 3.716250732421875 1.8021375000000002 Q 3.6937507324218752 1.8021375000000002 3.680250732421875 1.8013875000000001 L 3.627000732421875 1.8006375000000001 L 3.575250732421875 1.8013875000000001 Q 3.561750732421875 1.8021375000000002 3.538500732421875 1.8021375000000002 Q 3.536250732421875 1.8021375000000002 3.536250732421875 1.7976375000000002 Q 3.536250732421875 1.7931375000000003 3.538500732421875 1.7931375000000003 Q 3.5670007324218753 1.7931375000000003 3.580125732421875 1.7893875000000001 Q 3.593250732421875 1.7856375000000002 3.598125732421875 1.7747625000000002 Q 3.603000732421875 1.7638875000000003 3.603000732421875 1.7413875 L 3.603000732421875 1.3941375000000003 Q 3.603000732421875 1.3716375000000003 3.598125732421875 1.3611375000000001 Q 3.593250732421875 1.3506375000000002 3.580125732421875 1.3465125000000002 Q 3.5670007324218753 1.3423875 3.538500732421875 1.3423875 Q 3.536250732421875 1.3423875 3.536250732421875 1.3378875000000001 Q 3.536250732421875 1.3333875000000002 3.538500732421875 1.3333875000000002 L 3.575250732421875 1.3341375000000002 Q 3.606750732421875 1.3356375000000003 3.627000732421875 1.3356375000000003 Q 3.649500732421875 1.3356375000000003 3.681000732421875 1.3341375000000002 L 3.716250732421875 1.3333875000000002 Q 3.7185007324218753 1.3333875000000002 3.7185007324218753 1.3378875000000001 Q 3.7185007324218753 1.3423875 3.716250732421875 1.3423875 Q 3.688500732421875 1.3423875 3.675375732421875 1.3468875000000002 Q 3.662250732421875 1.3513875000000002 3.657375732421875 1.3622625000000002 Q 3.652500732421875 1.3731375000000001 3.652500732421875 1.3956375 L 3.652500732421875 1.7413875 Q 3.652500732421875 1.7638875000000003 3.657000732421875 1.7747625000000002 M 4.138103393554688 1.3318875000000001 Q 4.174853393554688 1.3386375000000001 4.196603393554688 1.3513875000000002 Q 4.203353393554687 1.3543875 4.2052283935546875 1.3577625000000002 Q 4.2071033935546875 1.3611375000000001 4.207853393554688 1.3693875000000002 L 4.216103393554688 1.4533875000000003 Q 4.216103393554688 1.4556375000000001 4.212353393554688 1.4560125000000002 Q 4.208603393554688 1.4563875000000002 4.207853393554688 1.4541375 Q 4.191353393554688 1.3963875000000001 4.146728393554688 1.3690125000000002 Q 4.102103393554688 1.3416375 4.036103393554688 1.3416375 Q 3.979103393554688 1.3416375 3.9363533935546875 1.3667625 Q 3.8936033935546877 1.3918875000000002 3.8703533935546877 1.4376375000000001 Q 3.8471033935546877 1.4833875 3.8471033935546877 1.5433875000000001 Q 3.8471033935546877 1.6131375000000001 3.875978393554688 1.6723875000000001 Q 3.9048533935546876 1.7316375000000002 3.9539783935546877 1.7661375000000001 Q 4.003103393554688 1.8006375000000001 4.060103393554687 1.8006375000000001 Q 4.114103393554688 1.8006375000000001 4.153853393554687 1.7710125 Q 4.193603393554688 1.7413875 4.214603393554688 1.6798875000000002 Q 4.214603393554688 1.6776375000000001 4.217603393554688 1.6776375000000001 Q 4.219853393554688 1.6776375000000001 4.221728393554688 1.6783875000000001 Q 4.223603393554688 1.6791375000000002 4.223603393554688 1.6806375000000002 L 4.213103393554688 1.7653875 Q 4.211603393554688 1.7743875000000002 4.209728393554688 1.7770125 Q 4.207853393554688 1.7796375000000002 4.201103393554687 1.7826375 Q 4.133603393554687 1.8111375 4.058603393554687 1.8111375 Q 3.968603393554688 1.8111375 3.9082283935546878 1.7747625000000002 Q 3.8478533935546877 1.7383875000000002 3.8193533935546875 1.6821375 Q 3.7908533935546878 1.6258875000000002 3.7908533935546878 1.5636375000000002 Q 3.7908533935546878 1.4946375 3.829103393554688 1.4398875000000002 Q 3.8673533935546875 1.3851375000000001 3.9303533935546877 1.3551375 Q 3.993353393554688 1.3251375 4.0653533935546875 1.3251375 Q 4.101353393554688 1.3251375 4.138103393554688 1.3318875000000001 M 4.616983154296875 1.6888875 Q 4.619233154296875 1.6888875 4.621108154296875 1.6896375000000001 Q 4.6229831542968745 1.6903875000000002 4.6229831542968745 1.6918875000000002 Q 4.616233154296875 1.7391375000000002 4.616233154296875 1.7908875000000002 Q 4.616233154296875 1.7968875000000002 4.613608154296875 1.7995125 Q 4.610983154296875 1.8021375000000002 4.604233154296875 1.8021375000000002 L 4.289983154296875 1.8021375000000002 Q 4.288483154296875 1.8021375000000002 4.288483154296875 1.7976375000000002 Q 4.288483154296875 1.7931375000000003 4.289983154296875 1.7931375000000003 Q 4.3184831542968745 1.7931375000000003 4.331608154296875 1.7893875000000001 Q 4.344733154296875 1.7856375000000002 4.349608154296875 1.7747625000000002 Q 4.354483154296875 1.7638875000000003 4.354483154296875 1.7413875 L 4.354483154296875 1.3941375000000003 Q 4.354483154296875 1.3716375000000003 4.349608154296875 1.3611375000000001 Q 4.344733154296875 1.3506375000000002 4.331608154296875 1.3465125000000002 Q 4.3184831542968745 1.3423875 4.289983154296875 1.3423875 Q 4.288483154296875 1.3423875 4.288483154296875 1.3378875000000001 Q 4.288483154296875 1.3333875000000002 4.289983154296875 1.3333875000000002 L 4.591483154296875 1.3333875000000002 Q 4.598233154296874 1.3333875000000002 4.598233154296874 1.3401375000000002 L 4.5997331542968745 1.4323875000000001 Q 4.5997331542968745 1.4346375000000002 4.595983154296875 1.4350125 Q 4.592233154296875 1.4353875 4.591483154296875 1.4331375000000002 Q 4.589233154296875 1.3933875000000002 4.567483154296875 1.3712625000000003 Q 4.545733154296875 1.3491375 4.509733154296875 1.3491375 L 4.463983154296875 1.3491375 Q 4.4377331542968745 1.3491375 4.425358154296875 1.3532625 Q 4.4129831542968745 1.3573875000000002 4.408108154296875 1.3675125000000001 Q 4.403233154296875 1.3776375 4.403233154296875 1.3978875000000002 L 4.403233154296875 1.5501375000000002 L 4.494733154296875 1.5501375000000002 Q 4.5307331542968745 1.5501375000000002 4.546108154296875 1.5381375000000002 Q 4.561483154296875 1.5261375000000001 4.561483154296875 1.4976375000000002 Q 4.561483154296875 1.4961375000000001 4.565983154296875 1.4961375000000001 Q 4.570483154296875 1.4961375000000001 4.570483154296875 1.4976375000000002 L 4.569733154296875 1.5583875000000003 Q 4.569733154296875 1.5801375000000002 4.570483154296875 1.5913875000000002 L 4.571233154296875 1.6273875000000002 Q 4.571233154296875 1.6288875000000003 4.566733154296875 1.6288875000000003 Q 4.562233154296875 1.6288875000000003 4.562233154296875 1.6273875000000002 Q 4.562233154296875 1.5943875 4.546108154296875 1.5801375000000002 Q 4.5299831542968745 1.5658875 4.492483154296875 1.5658875 L 4.403233154296875 1.5658875 L 4.403233154296875 1.7383875000000002 Q 4.403233154296875 1.7593875 4.407733154296875 1.7691375000000003 Q 4.4122331542968745 1.7788875000000002 4.424233154296875 1.7826375 Q 4.4362331542968745 1.7863875000000002 4.461733154296875 1.7863875000000002 L 4.521733154296875 1.7863875000000002 Q 4.557733154296875 1.7863875000000002 4.581733154296875 1.7608875000000002 Q 4.605733154296875 1.7353875 4.613983154296875 1.6903875000000002 Q 4.613983154296875 1.6888875 4.616983154296875 1.6888875 M 4.7853486328125 1.4721375 Q 4.7995986328125 1.4938875 4.8198486328125 1.5085125000000001 Q 4.8400986328124995 1.5231375000000003 4.8768486328125 1.5456375000000002 Q 4.9158486328125 1.5688875000000002 4.9375986328125 1.5846375000000001 Q 4.9593486328125 1.6003875 4.9747236328125 1.6247625 Q 4.9900986328125 1.6491375000000001 4.9900986328125 1.6828875 Q 4.9900986328125 1.7188875000000001 4.9720986328125 1.7481375000000001 Q 4.9540986328125 1.7773875000000001 4.9192236328125 1.7942625 Q 4.8843486328125 1.8111375 4.8355986328125 1.8111375 Q 4.7778486328125 1.8111375 4.7298486328125 1.7848875000000002 Q 4.7260986328125 1.7826375 4.7249736328125 1.7796375000000002 Q 4.7238486328125 1.7766375 4.7230986328124995 1.7706375 L 4.7133486328125 1.6686375000000002 Q 4.7125986328125 1.6656375 4.7167236328125 1.6648875 Q 4.7208486328125 1.6641375000000003 4.7215986328124995 1.6671375000000002 Q 4.7335986328125 1.7211375000000002 4.7662236328125 1.7601375000000001 Q 4.7988486328125 1.7991375000000003 4.8528486328125 1.7991375000000003 Q 4.8903486328125 1.7991375000000003 4.9162236328125 1.7785125000000002 Q 4.9420986328125 1.7578875000000003 4.9420986328125 1.7128875000000001 Q 4.9420986328125 1.6791375000000002 4.9270986328125 1.6543875000000001 Q 4.9120986328125 1.6296375 4.8907236328125 1.6135125000000001 Q 4.8693486328125 1.5973875000000002 4.8325986328125 1.5756375000000002 Q 4.7965986328125 1.5538875 4.7759736328125 1.5381375000000002 Q 4.7553486328125 1.5223875000000002 4.7410986328125 1.4983875000000002 Q 4.7268486328125 1.4743875000000002 4.7268486328125 1.4421375000000003 Q 4.7268486328125 1.4046375000000002 4.7467236328124995 1.3780125 Q 4.7665986328125 1.3513875000000002 4.7984736328125 1.3382625000000001 Q 4.8303486328125 1.3251375 4.8663486328125 1.3251375 Q 4.9105986328124995 1.3251375 4.9540986328125 1.3431375 Q 4.9653486328125 1.3468875000000002 4.9653486328125 1.3558875000000001 L 4.9705986328125 1.4421375000000003 Q 4.9705986328125 1.4451375000000002 4.9668486328125 1.4451375000000002 Q 4.9630986328125 1.4451375000000002 4.9623486328125 1.4421375000000003 Q 4.9563486328124995 1.4031375000000001 4.9300986328125 1.3697625000000002 Q 4.9038486328125 1.3363875000000003 4.8543486328125 1.3363875000000003 Q 4.8123486328125 1.3363875000000003 4.7917236328124995 1.3607625 Q 4.7710986328125 1.3851375000000001 4.7710986328125 1.4211375000000002 Q 4.7710986328125 1.4503875000000002 4.7853486328125 1.4721375 M 5.3486260986328125 1.7383875000000002 Q 5.3486260986328125 1.7601375000000001 5.353126098632813 1.7698875000000003 Q 5.357626098632813 1.7796375000000002 5.369626098632812 1.7830125000000001 Q 5.381626098632813 1.7863875000000002 5.408626098632813 1.7863875000000002 L 5.4903760986328125 1.7863875000000002 Q 5.533126098632812 1.7863875000000002 5.558626098632812 1.7601375000000001 Q 5.5841260986328125 1.7338875000000002 5.592376098632813 1.6873875000000003 Q 5.592376098632813 1.6851375000000002 5.596501098632812 1.6855125000000002 Q 5.600626098632812 1.6858875000000002 5.600626098632812 1.6881375 Q 5.593876098632813 1.7503875000000002 5.593876098632813 1.7908875000000002 Q 5.593876098632813 1.7968875000000002 5.591626098632813 1.7995125 Q 5.589376098632813 1.8021375000000002 5.5826260986328125 1.8021375000000002 L 5.236126098632813 1.8021375000000002 Q 5.234626098632813 1.8021375000000002 5.234626098632813 1.7976375000000002 Q 5.234626098632813 1.7931375000000003 5.236126098632813 1.7931375000000003 Q 5.264626098632813 1.7931375000000003 5.277751098632812 1.7893875000000001 Q 5.290876098632813 1.7856375000000002 5.295376098632812 1.7747625000000002 Q 5.299876098632812 1.7638875000000003 5.299876098632812 1.7413875 L 5.299876098632812 1.3941375000000003 Q 5.299876098632812 1.3716375000000003 5.295376098632812 1.3611375000000001 Q 5.290876098632813 1.3506375000000002 5.277751098632812 1.3465125000000002 Q 5.264626098632813 1.3423875 5.236126098632813 1.3423875 Q 5.234626098632813 1.3423875 5.234626098632813 1.3378875000000001 Q 5.234626098632813 1.3333875000000002 5.236126098632813 1.3333875000000002 L 5.272876098632812 1.3341375000000002 Q 5.304376098632813 1.3356375000000003 5.323876098632812 1.3356375000000003 Q 5.344876098632812 1.3356375000000003 5.376376098632813 1.3341375000000002 L 5.412376098632812 1.3333875000000002 Q 5.414626098632812 1.3333875000000002 5.414626098632812 1.3378875000000001 Q 5.414626098632812 1.3423875 5.412376098632812 1.3423875 Q 5.384626098632813 1.3423875 5.371501098632812 1.3465125000000002 Q 5.358376098632813 1.3506375000000002 5.353501098632813 1.3615125000000001 Q 5.3486260986328125 1.3723875 5.3486260986328125 1.3948875000000003 L 5.3486260986328125 1.7383875000000002 M 5.75026611328125 1.7383875000000002 Q 5.75026611328125 1.7601375000000001 5.75476611328125 1.7698875000000003 Q 5.75926611328125 1.7796375000000002 5.77126611328125 1.7830125000000001 Q 5.78326611328125 1.7863875000000002 5.8102661132812505 1.7863875000000002 L 5.89201611328125 1.7863875000000002 Q 5.93476611328125 1.7863875000000002 5.96026611328125 1.7601375000000001 Q 5.98576611328125 1.7338875000000002 5.99401611328125 1.6873875000000003 Q 5.99401611328125 1.6851375000000002 5.99814111328125 1.6855125000000002 Q 6.00226611328125 1.6858875000000002 6.00226611328125 1.6881375 Q 5.9955161132812504 1.7503875000000002 5.9955161132812504 1.7908875000000002 Q 5.9955161132812504 1.7968875000000002 5.99326611328125 1.7995125 Q 5.99101611328125 1.8021375000000002 5.98426611328125 1.8021375000000002 L 5.63776611328125 1.8021375000000002 Q 5.63626611328125 1.8021375000000002 5.63626611328125 1.7976375000000002 Q 5.63626611328125 1.7931375000000003 5.63776611328125 1.7931375000000003 Q 5.66626611328125 1.7931375000000003 5.67939111328125 1.7893875000000001 Q 5.6925161132812505 1.7856375000000002 5.69701611328125 1.7747625000000002 Q 5.70151611328125 1.7638875000000003 5.70151611328125 1.7413875 L 5.70151611328125 1.3941375000000003 Q 5.70151611328125 1.3716375000000003 5.69701611328125 1.3611375000000001 Q 5.6925161132812505 1.3506375000000002 5.67939111328125 1.3465125000000002 Q 5.66626611328125 1.3423875 5.63776611328125 1.3423875 Q 5.63626611328125 1.3423875 5.63626611328125 1.3378875000000001 Q 5.63626611328125 1.3333875000000002 5.63776611328125 1.3333875000000002 L 5.67451611328125 1.3341375000000002 Q 5.70601611328125 1.3356375000000003 5.72551611328125 1.3356375000000003 Q 5.74651611328125 1.3356375000000003 5.77801611328125 1.3341375000000002 L 5.81401611328125 1.3333875000000002 Q 5.81626611328125 1.3333875000000002 5.81626611328125 1.3378875000000001 Q 5.81626611328125 1.3423875 5.81401611328125 1.3423875 Q 5.7862661132812505 1.3423875 5.77314111328125 1.3465125000000002 Q 5.76001611328125 1.3506375000000002 5.75514111328125 1.3615125000000001 Q 5.75026611328125 1.3723875 5.75026611328125 1.3948875000000003 L 5.75026611328125 1.7383875000000002 M 6.397156127929688 1.3318875000000001 Q 6.433906127929688 1.3386375000000001 6.455656127929688 1.3513875000000002 Q 6.462406127929688 1.3543875 6.464281127929688 1.3577625000000002 Q 6.466156127929688 1.3611375000000001 6.466906127929688 1.3693875000000002 L 6.475156127929687 1.4533875000000003 Q 6.475156127929687 1.4556375000000001 6.471406127929687 1.4560125000000002 Q 6.467656127929688 1.4563875000000002 6.466906127929688 1.4541375 Q 6.450406127929687 1.3963875000000001 6.4057811279296875 1.3690125000000002 Q 6.3611561279296875 1.3416375 6.295156127929688 1.3416375 Q 6.238156127929687 1.3416375 6.1954061279296875 1.3667625 Q 6.152656127929688 1.3918875000000002 6.129406127929688 1.4376375000000001 Q 6.106156127929688 1.4833875 6.106156127929688 1.5433875000000001 Q 6.106156127929688 1.6131375000000001 6.135031127929688 1.6723875000000001 Q 6.163906127929688 1.7316375000000002 6.213031127929687 1.7661375000000001 Q 6.262156127929687 1.8006375000000001 6.319156127929688 1.8006375000000001 Q 6.373156127929688 1.8006375000000001 6.412906127929688 1.7710125 Q 6.4526561279296875 1.7413875 6.473656127929687 1.6798875000000002 Q 6.473656127929687 1.6776375000000001 6.4766561279296875 1.6776375000000001 Q 6.478906127929688 1.6776375000000001 6.480781127929688 1.6783875000000001 Q 6.482656127929688 1.6791375000000002 6.482656127929688 1.6806375000000002 L 6.472156127929687 1.7653875 Q 6.470656127929688 1.7743875000000002 6.468781127929688 1.7770125 Q 6.466906127929688 1.7796375000000002 6.460156127929688 1.7826375 Q 6.392656127929688 1.8111375 6.317656127929688 1.8111375 Q 6.227656127929688 1.8111375 6.167281127929687 1.7747625000000002 Q 6.106906127929688 1.7383875000000002 6.0784061279296875 1.6821375 Q 6.049906127929687 1.6258875000000002 6.049906127929687 1.5636375000000002 Q 6.049906127929687 1.4946375 6.088156127929688 1.4398875000000002 Q 6.1264061279296875 1.3851375000000001 6.189406127929687 1.3551375 Q 6.252406127929688 1.3251375 6.324406127929688 1.3251375 Q 6.3604061279296875 1.3251375 6.397156127929688 1.3318875000000001" fill="#000000" fill-rule="nonzero"></path></g><g clip-path="url(#SvgjsClipPath1001)"><g clip-path="url(#SvgjsClipPath10007cefd259-640b-4059-ba06-85b282244491)"><path d=" M -0.6730151703104208 0.019026280873949086 L -2.2270913469356697 0.019026280873949086 L -2.2270913469356697 1.5731024574991979 L -0.6730151703104208 1.5731024574991979 Z M -2.290097755619237 -0.04398012780961824 L -2.290097755619237 1.636108866182765 L -0.6100087616268537 1.636108866182765 L -0.6100087616268537 -0.04398012780961824 Z" fill="#000000" transform="matrix(1,0,0,1,0,0)" fill-rule="evenodd"></path></g><g clip-path="url(#SvgjsClipPath10007cefd259-640b-4059-ba06-85b282244491)"><path d=" M -0.46300640868356724 0.2290350425008024 L -2.0170825853088163 0.2290350425008024 L -2.0170825853088163 1.7831112191260514 L -0.46300640868356724 1.7831112191260514 Z M -2.0800889939923835 0.1660286338172352 L -2.0800889939923835 1.8461176278096185 L -0.40000000000000013 1.8461176278096185 L -0.40000000000000013 0.1660286338172352 Z" fill="#000000" transform="matrix(1,0,0,1,0,0)" fill-rule="evenodd"></path></g><path d=" M -1.6924431603561496 1.0610095513602051 C -1.7122005534653515 1.0610095513602051 -1.7290570594910593 1.0591278948736145 -1.7430126784332733 1.0553645819004331 C -1.7569682973754872 1.0516012689272518 -1.771315928085741 1.0461131041746958 -1.7860555705640344 1.038900087642765 L -1.790759711780511 0.9612817575709007 L -1.7832330858341483 0.9612817575709007 L -1.7583011373868223 1.0125568968304959 C -1.7473248078817103 1.0216515698490174 -1.736505283083814 1.0282373675520846 -1.7258425629931335 1.0323142899396978 C -1.7151798429024534 1.036391212327311 -1.704517122811773 1.0384296735211174 -1.6938544027210927 1.0384296735211174 C -1.6756650566840499 1.0384296735211174 -1.6613174259737962 1.0337255323046408 -1.6508115105903316 1.0243172498716875 C -1.640305595206867 1.0149089674387342 -1.6350526375151349 1.0020509814470315 -1.6350526375151349 0.9857432918965792 C -1.6350526375151349 0.9728853059048765 -1.6379535245986288 0.9626145975822358 -1.6437552987656168 0.9549311669286573 C -1.6495570729326046 0.9472477362750789 -1.6581813318294782 0.9403483291575798 -1.669628075456238 0.9342329455761602 C -1.6810748190829978 0.9281175619947406 -1.6951088403788197 0.9209829478164178 -1.7117301393437039 0.9128291030411917 C -1.7339964077683598 0.9021663829505113 -1.7510881208548914 0.8909548463845753 -1.7630052786032988 0.8791944933433838 C -1.7749224363517064 0.8674341403021923 -1.78088101522591 0.8508912436909162 -1.78088101522591 0.8295658035095554 C -1.78088101522591 0.8182758645900117 -1.7781369328496321 0.8073779374385075 -1.772648768097076 0.796872022055043 C -1.76716060334452 0.7863661066715786 -1.7597123797517653 0.7769578242386254 -1.750304097318812 0.7686471747561834 C -1.7408958148858589 0.7603365252737413 -1.7303898995023943 0.7536723252170661 -1.7187863511684187 0.7486545745861577 C -1.7071828028344431 0.7436368239552493 -1.6951088403788197 0.741127948639795 -1.682564463801549 0.741127948639795 C -1.6678248213232554 0.741127948639795 -1.6540260070882573 0.7428528004191699 -1.6411680210965545 0.7463025039779194 C -1.6283100351048518 0.7497522075366689 -1.615608853820365 0.7547699581675773 -1.603064477243094 0.7613557558706445 L -1.5983603360266172 0.8366220153342705 L -1.6058869619729799 0.8366220153342705 L -1.6303484962986583 0.7862877043179707 C -1.640383997560475 0.7784474689571763 -1.6494786705789966 0.7728024994974043 -1.6576325153542226 0.7693527959386548 C -1.665786360129449 0.7659030923799053 -1.6750378378551862 0.7641782406005305 -1.6853869485314348 0.7641782406005305 C -1.698872153352001 0.7641782406005305 -1.710083689917937 0.7687255771097913 -1.7190215582292425 0.7778202501283127 C -1.727959426540548 0.7869149231468342 -1.732428360696201 0.798361666773594 -1.732428360696201 0.8121604810085921 C -1.732428360696201 0.827527342315749 -1.7276458171261164 0.8396013047713724 -1.7180807299859473 0.8483823683754621 C -1.7085156428457782 0.8571634319795517 -1.6930703791850132 0.8665717144125049 -1.6717449390036525 0.8766072156743216 C -1.652928374137746 0.8857018886928432 -1.6373263057697653 0.8944045499433249 -1.62493873389971 0.902715199425767 C -1.612551162029655 0.911025848908209 -1.6033780866575258 0.9203557289875542 -1.597419507783322 0.9307048396638029 C -1.5914609289091182 0.9410539503400512 -1.5884816394720165 0.9542255457461859 -1.5884816394720165 0.9702196258822064 C -1.5884816394720165 0.9849592683604997 -1.5916177336163342 0.9979740590594184 -1.5978899219049696 1.0092639979789624 C -1.6041621101936052 1.0205539368985062 -1.6124727596760473 1.0300406216850673 -1.6228218703522956 1.037724052338646 C -1.6331709810285442 1.0454074829922242 -1.6443825175944802 1.0512092571592122 -1.6564564800501036 1.0551293748396093 C -1.6685304425057268 1.0590494925200065 -1.6805260026077422 1.0610095513602051 -1.6924431603561496 1.0610095513602051 M -1.4591104057982587 1.0610095513602051 C -1.4870216436826866 1.0610095513602051 -1.5094447168145586 1.0537181324746663 -1.5263796251938744 1.0391352947035888 C -1.5433145335731902 1.0245524569325113 -1.551781987762848 1.0048734661769174 -1.551781987762848 0.9800983224368072 C -1.551781987762848 0.9647314611296502 -1.5466074324247236 0.9495998068833171 -1.536258321748475 0.934703359697808 C -1.5259092110722265 0.9198069125122986 -1.5091311074001266 0.9051456723876132 -1.4859240107321754 0.8907196393237515 C -1.4965867308228558 0.8794297004042076 -1.5047405755980818 0.8697862109104306 -1.5103855450578538 0.8617891708424203 C -1.5160305145176258 0.8537921307744101 -1.519872229844415 0.8463439071816555 -1.5219106910382214 0.8394445000641564 C -1.523949152232028 0.8325450929466574 -1.5249683828289313 0.824704857585863 -1.5249683828289313 0.8159237939817734 C -1.5249683828289313 0.8036930268189342 -1.52120506985575 0.7918542714241347 -1.5136784439093875 0.7804075277973749 C -1.5061518179630249 0.7689607841706152 -1.4957243049331683 0.7595525017376619 -1.4823959048198179 0.7521826804985152 C -1.4690675047064676 0.7448128592593685 -1.4537790457529185 0.741127948639795 -1.436530527959171 0.741127948639795 C -1.4114417748046288 0.741127948639795 -1.391762784049035 0.746851320453175 -1.3774935556923893 0.7582980640799348 C -1.3632243273357436 0.7697448077066945 -1.3560897131574208 0.78440604783138 -1.3560897131574208 0.8022817844539911 C -1.3560897131574208 0.816394208103421 -1.3625971085068802 0.8290953893879078 -1.3756118992057986 0.8403853283074517 C -1.3886266899047173 0.8516752672269956 -1.4075216571242317 0.8639060343898348 -1.432296800864342 0.8770776297959695 C -1.4301015349633195 0.8795865051114236 -1.4275926596478654 0.8822521851340936 -1.4247701749179793 0.8850746698639796 C -1.4219476901880934 0.8878971545938656 -1.4191252054582075 0.8907196393237515 -1.4163027207283214 0.8935421240536375 L -1.341977289507991 0.967867555273968 C -1.333509835318333 0.9546959598678335 -1.3255127952503227 0.9397211103287162 -1.31798616930396 0.9229430066566164 C -1.3104595433575976 0.9061649029845165 -1.3032465268256668 0.8875835451794338 -1.2963471197081677 0.8671989332413684 L -1.3424477036296385 0.8488527824971097 L -1.3424477036296385 0.841326156550747 L -1.2295483144341999 0.841326156550747 L -1.2295483144341999 0.8488527824971097 L -1.2700039288958989 0.8662581049980731 C -1.2797258207432836 0.8882107640082972 -1.2894477125906687 0.9088305830071866 -1.2991696044380536 0.9281175619947406 C -1.3088914962854385 0.9474045409822949 -1.3190838022544713 0.9647314611296502 -1.3297465223451517 0.9800983224368072 L -1.278000968963909 1.03184387581805 L -1.238956596867153 1.048778784197366 L -1.238956596867153 1.0563054101437284 L -1.3217494822771414 1.0563054101437284 L -1.3603234402522497 1.0177314521686203 C -1.373808645072816 1.0315302664036183 -1.3886266899047173 1.0421929864942987 -1.4047775747479538 1.0497196124406611 C -1.4209284595911902 1.0572462383870238 -1.439039403274625 1.0610095513602051 -1.4591104057982587 1.0610095513602051 M -1.4788677989074603 0.8041634409405818 C -1.4788677989074603 0.8148261610312622 -1.4760453141775745 0.8246264552322551 -1.4704003447178025 0.8335643235435606 C -1.4647553752580307 0.8425021918548663 -1.455974311653941 0.8532433142991545 -1.4440571539055336 0.8657876908764255 C -1.430571949084967 0.8557521896146087 -1.4201444360551108 0.8459518954136158 -1.412774614815964 0.8363868082734466 C -1.4054047935768172 0.8268217211332775 -1.401719882957244 0.8156101845673416 -1.401719882957244 0.8027521985756387 C -1.401719882957244 0.7908350408272313 -1.4052479888696014 0.7811131489798464 -1.4123042006943165 0.7735865230334837 C -1.4193604125190313 0.7660598970871212 -1.4286902925983767 0.76229658411394 -1.4402938409323522 0.76229658411394 C -1.4512701704374642 0.76229658411394 -1.4604432458095937 0.7660598970871212 -1.4678130670487404 0.7735865230334837 C -1.475182888287887 0.7811131489798464 -1.4788677989074603 0.791305454948879 -1.4788677989074603 0.8041634409405818 M -1.5037997473547866 0.9669267270306727 C -1.5037997473547866 0.9869977295543064 -1.497527559066151 1.0025213955686791 -1.4849831824888802 1.0134977250737913 C -1.4724388059116091 1.0244740545789033 -1.457228749311668 1.0299622193314595 -1.4393530126890568 1.0299622193314595 C -1.4152050877778102 1.0299622193314595 -1.393252428767586 1.0214947651418016 -1.3734950356583842 1.0045598567624856 L -1.4440571539055336 0.9335273243936888 C -1.4500157327797372 0.9278823549339168 -1.4555038975322934 0.9224725925349687 -1.4605216481632017 0.9172980371968444 C -1.46553939879411 0.9121234818587202 -1.4702435400105867 0.9073409382886356 -1.4746340718126314 0.9029504064865908 C -1.4874920578043342 0.9139267359917029 -1.4955675002259525 0.9239622372535197 -1.498860399077486 0.9330569102720412 C -1.5021532979290197 0.9421515832905625 -1.5037997473547866 0.9534415222101065 -1.5037997473547866 0.9669267270306727 M -1.214036362833989 1.0563054101437284 L -1.214036362833989 1.048778784197366 L -1.1844002731701864 1.033255118182993 L -1.0635038439067372 0.7434800192480334 L -1.037631067216116 0.7434800192480334 L -0.9181458803176099 1.03184387581805 L -0.8866281341672165 1.048778784197366 L -0.8866281341672165 1.0563054101437284 L -1.010817462282199 1.0563054101437284 L -1.010817462282199 1.048778784197366 L -0.969421019577205 1.0323142899396978 L -1.004231664579132 0.9476397480431187 L -1.1176014678962183 0.9476397480431187 L -1.1519416987764977 1.0327847040613454 L -1.1124269125580941 1.048778784197366 L -1.1124269125580941 1.0563054101437284 L -1.214036362833989 1.0563054101437284 M -1.1067819430983221 0.9217669713524972 L -1.0145807752553806 0.9217669713524972 L -1.0606813591768514 0.8083971680354107 L -1.1067819430983221 0.9217669713524972" fill="#000000" transform="matrix(1,0,0,1,0,0)" fill-rule="nonzero"></path></g></g><defs><clipPath id="SvgjsClipPath1001"><path d=" M -2.290097755619237 -0.04398012780961824 h 1.8900977556192367 v 1.8900977556192367 h -1.8900977556192367 Z"></path></clipPath><clipPath id="SvgjsClipPath10007cefd259-640b-4059-ba06-85b282244491"><path d=" M -2.290097755619237 -0.04398012780961824 L -0.40000000000000013 -0.04398012780961824 L -0.40000000000000013 1.8461176278096185 L -2.290097755619237 1.8461176278096185 Z"></path></clipPath></defs></svg>